<mxfile host="app.diagrams.net" agent="Mozilla/5.0 (Windows NT 10.0; Win64; x64) AppleWebKit/537.36 (KHTML, like Gecko) Chrome/131.0.0.0 Safari/537.36" version="24.9.3">
  <diagram name="PÃ¡gina-1" id="Zlu9ByVIFABH_KwIn2tE">
    <mxGraphModel dx="4698" dy="2587" grid="1" gridSize="10" guides="1" tooltips="1" connect="1" arrows="1" fold="1" page="1" pageScale="1" pageWidth="827" pageHeight="1169" math="0" shadow="0">
      <root>
        <mxCell id="0" />
        <mxCell id="1" parent="0" />
        <mxCell id="5bqz2XkuT6iUcLr_zESf-1" value="&lt;font color=&quot;#c925d1&quot;&gt;Reportes&lt;/font&gt;" style="points=[[0,0],[0.25,0],[0.5,0],[0.75,0],[1,0],[1,0.25],[1,0.5],[1,0.75],[1,1],[0.75,1],[0.5,1],[0.25,1],[0,1],[0,0.75],[0,0.5],[0,0.25]];outlineConnect=0;gradientColor=none;html=1;whiteSpace=wrap;fontSize=12;fontStyle=0;container=1;pointerEvents=0;collapsible=0;recursiveResize=0;shape=mxgraph.aws4.group;grIcon=mxgraph.aws4.group_ec2_instance_contents;strokeColor=#C925D1;fillColor=none;verticalAlign=top;align=left;spacingLeft=30;fontColor=#D86613;dashed=0;" parent="1" vertex="1">
          <mxGeometry x="200" y="52" width="160" height="130.5" as="geometry" />
        </mxCell>
        <mxCell id="5bqz2XkuT6iUcLr_zESf-2" value="" style="sketch=0;pointerEvents=1;shadow=0;dashed=0;html=1;strokeColor=none;fillColor=#B121B8;labelPosition=center;verticalLabelPosition=bottom;verticalAlign=top;outlineConnect=0;align=center;shape=mxgraph.office.concepts.document;" parent="5bqz2XkuT6iUcLr_zESf-1" vertex="1">
          <mxGeometry x="10" y="45" width="30" height="30" as="geometry" />
        </mxCell>
        <mxCell id="5bqz2XkuT6iUcLr_zESf-3" value="" style="sketch=0;pointerEvents=1;shadow=0;dashed=0;html=1;strokeColor=none;fillColor=#B121B8;labelPosition=center;verticalLabelPosition=bottom;verticalAlign=top;outlineConnect=0;align=center;shape=mxgraph.office.concepts.document;" parent="5bqz2XkuT6iUcLr_zESf-1" vertex="1">
          <mxGeometry x="10" y="87.5" width="30" height="30" as="geometry" />
        </mxCell>
        <mxCell id="5bqz2XkuT6iUcLr_zESf-4" value="" style="sketch=0;pointerEvents=1;shadow=0;dashed=0;html=1;strokeColor=none;fillColor=#B121B8;labelPosition=center;verticalLabelPosition=bottom;verticalAlign=top;outlineConnect=0;align=center;shape=mxgraph.office.concepts.document;" parent="5bqz2XkuT6iUcLr_zESf-1" vertex="1">
          <mxGeometry x="64" y="87.5" width="30" height="30" as="geometry" />
        </mxCell>
        <mxCell id="5bqz2XkuT6iUcLr_zESf-5" value="" style="sketch=0;pointerEvents=1;shadow=0;dashed=0;html=1;strokeColor=none;fillColor=#B121B8;labelPosition=center;verticalLabelPosition=bottom;verticalAlign=top;outlineConnect=0;align=center;shape=mxgraph.office.concepts.document;" parent="5bqz2XkuT6iUcLr_zESf-1" vertex="1">
          <mxGeometry x="64" y="45" width="30" height="30" as="geometry" />
        </mxCell>
        <mxCell id="5bqz2XkuT6iUcLr_zESf-6" value="" style="sketch=0;pointerEvents=1;shadow=0;dashed=0;html=1;strokeColor=none;fillColor=#B121B8;labelPosition=center;verticalLabelPosition=bottom;verticalAlign=top;outlineConnect=0;align=center;shape=mxgraph.office.concepts.document;" parent="5bqz2XkuT6iUcLr_zESf-1" vertex="1">
          <mxGeometry x="118" y="87.5" width="30" height="30" as="geometry" />
        </mxCell>
        <mxCell id="5bqz2XkuT6iUcLr_zESf-7" value="" style="sketch=0;pointerEvents=1;shadow=0;dashed=0;html=1;strokeColor=none;fillColor=#B121B8;labelPosition=center;verticalLabelPosition=bottom;verticalAlign=top;outlineConnect=0;align=center;shape=mxgraph.office.concepts.document;" parent="5bqz2XkuT6iUcLr_zESf-1" vertex="1">
          <mxGeometry x="118" y="45" width="30" height="30" as="geometry" />
        </mxCell>
        <mxCell id="ElAwQmVQCS1_ze1naP4R-1" value="Balanceadores de carga" style="sketch=0;outlineConnect=0;fontColor=#232F3E;gradientColor=none;fillColor=#8C4FFF;strokeColor=none;dashed=0;verticalLabelPosition=bottom;verticalAlign=top;align=center;html=1;fontSize=12;fontStyle=0;aspect=fixed;pointerEvents=1;shape=mxgraph.aws4.application_load_balancer;" vertex="1" parent="1">
          <mxGeometry x="760" y="-410" width="78" height="78" as="geometry" />
        </mxCell>
        <mxCell id="ElAwQmVQCS1_ze1naP4R-2" value="" style="sketch=0;points=[[0,0,0],[0.25,0,0],[0.5,0,0],[0.75,0,0],[1,0,0],[0,1,0],[0.25,1,0],[0.5,1,0],[0.75,1,0],[1,1,0],[0,0.25,0],[0,0.5,0],[0,0.75,0],[1,0.25,0],[1,0.5,0],[1,0.75,0]];outlineConnect=0;fontColor=#232F3E;fillColor=#8C4FFF;strokeColor=#ffffff;dashed=0;verticalLabelPosition=bottom;verticalAlign=top;align=center;html=1;fontSize=12;fontStyle=0;aspect=fixed;shape=mxgraph.aws4.resourceIcon;resIcon=mxgraph.aws4.route_53;" vertex="1" parent="1">
          <mxGeometry x="1230" y="-410" width="78" height="78" as="geometry" />
        </mxCell>
        <mxCell id="ElAwQmVQCS1_ze1naP4R-3" value="RDS Transaccional" style="sketch=0;points=[[0,0,0],[0.25,0,0],[0.5,0,0],[0.75,0,0],[1,0,0],[0,1,0],[0.25,1,0],[0.5,1,0],[0.75,1,0],[1,1,0],[0,0.25,0],[0,0.5,0],[0,0.75,0],[1,0.25,0],[1,0.5,0],[1,0.75,0]];outlineConnect=0;fontColor=#232F3E;fillColor=#C925D1;strokeColor=#ffffff;dashed=0;verticalLabelPosition=bottom;verticalAlign=top;align=center;html=1;fontSize=12;fontStyle=0;aspect=fixed;shape=mxgraph.aws4.resourceIcon;resIcon=mxgraph.aws4.rds;" vertex="1" parent="1">
          <mxGeometry x="-30" y="-570" width="78" height="78" as="geometry" />
        </mxCell>
        <mxCell id="ElAwQmVQCS1_ze1naP4R-4" value="RDS SIGAB ETL BI" style="sketch=0;points=[[0,0,0],[0.25,0,0],[0.5,0,0],[0.75,0,0],[1,0,0],[0,1,0],[0.25,1,0],[0.5,1,0],[0.75,1,0],[1,1,0],[0,0.25,0],[0,0.5,0],[0,0.75,0],[1,0.25,0],[1,0.5,0],[1,0.75,0]];outlineConnect=0;fontColor=#232F3E;fillColor=#C925D1;strokeColor=#ffffff;dashed=0;verticalLabelPosition=bottom;verticalAlign=top;align=center;html=1;fontSize=12;fontStyle=0;aspect=fixed;shape=mxgraph.aws4.resourceIcon;resIcon=mxgraph.aws4.rds;" vertex="1" parent="1">
          <mxGeometry x="-30" y="-410" width="78" height="78" as="geometry" />
        </mxCell>
        <mxCell id="ElAwQmVQCS1_ze1naP4R-5" style="edgeStyle=orthogonalEdgeStyle;rounded=0;orthogonalLoop=1;jettySize=auto;html=1;" edge="1" parent="1" source="ElAwQmVQCS1_ze1naP4R-6" target="ElAwQmVQCS1_ze1naP4R-107">
          <mxGeometry relative="1" as="geometry">
            <Array as="points">
              <mxPoint x="-310" y="-211" />
              <mxPoint x="-310" y="-343" />
            </Array>
          </mxGeometry>
        </mxCell>
        <mxCell id="ElAwQmVQCS1_ze1naP4R-6" value="&lt;div&gt;RDS Wordpress&lt;/div&gt;" style="sketch=0;points=[[0,0,0],[0.25,0,0],[0.5,0,0],[0.75,0,0],[1,0,0],[0,1,0],[0.25,1,0],[0.5,1,0],[0.75,1,0],[1,1,0],[0,0.25,0],[0,0.5,0],[0,0.75,0],[1,0.25,0],[1,0.5,0],[1,0.75,0]];outlineConnect=0;fontColor=#232F3E;fillColor=#C925D1;strokeColor=#ffffff;dashed=0;verticalLabelPosition=bottom;verticalAlign=top;align=center;html=1;fontSize=12;fontStyle=0;aspect=fixed;shape=mxgraph.aws4.resourceIcon;resIcon=mxgraph.aws4.rds;" vertex="1" parent="1">
          <mxGeometry x="-30" y="-250" width="78" height="78" as="geometry" />
        </mxCell>
        <mxCell id="ElAwQmVQCS1_ze1naP4R-7" value="" style="group;movable=1;resizable=1;rotatable=1;deletable=1;editable=1;locked=0;connectable=1;" vertex="1" connectable="0" parent="1">
          <mxGeometry x="280" y="-487" width="318.5" height="231" as="geometry" />
        </mxCell>
        <mxCell id="ElAwQmVQCS1_ze1naP4R-8" value="Grupo de nodos (2 instancias m5.large)" style="fillColor=#EFF0F3;strokeColor=none;dashed=0;verticalAlign=top;fontStyle=0;fontColor=#232F3D;whiteSpace=wrap;html=1;" vertex="1" parent="ElAwQmVQCS1_ze1naP4R-7">
          <mxGeometry width="318.5" height="231" as="geometry" />
        </mxCell>
        <mxCell id="ElAwQmVQCS1_ze1naP4R-9" value="" style="sketch=0;points=[[0,0,0],[0.25,0,0],[0.5,0,0],[0.75,0,0],[1,0,0],[0,1,0],[0.25,1,0],[0.5,1,0],[0.75,1,0],[1,1,0],[0,0.25,0],[0,0.5,0],[0,0.75,0],[1,0.25,0],[1,0.5,0],[1,0.75,0]];outlineConnect=0;fontColor=#232F3E;fillColor=#ED7100;strokeColor=#ffffff;dashed=0;verticalLabelPosition=bottom;verticalAlign=top;align=center;html=1;fontSize=12;fontStyle=0;aspect=fixed;shape=mxgraph.aws4.resourceIcon;resIcon=mxgraph.aws4.ec2;" vertex="1" parent="ElAwQmVQCS1_ze1naP4R-7">
          <mxGeometry x="17.25" y="83" width="78" height="78" as="geometry" />
        </mxCell>
        <mxCell id="ElAwQmVQCS1_ze1naP4R-10" value="&lt;div&gt;redis&lt;/div&gt;&lt;div&gt;&lt;br&gt;&lt;/div&gt;" style="sketch=0;outlineConnect=0;fontColor=#232F3E;gradientColor=none;fillColor=#ED7100;strokeColor=none;dashed=0;verticalLabelPosition=bottom;verticalAlign=top;align=center;html=1;fontSize=12;fontStyle=0;aspect=fixed;pointerEvents=1;shape=mxgraph.aws4.container_1;" vertex="1" parent="ElAwQmVQCS1_ze1naP4R-7">
          <mxGeometry x="109.25" y="47.5" width="48" height="31" as="geometry" />
        </mxCell>
        <mxCell id="ElAwQmVQCS1_ze1naP4R-11" value="sigabws" style="sketch=0;outlineConnect=0;fontColor=#232F3E;gradientColor=none;fillColor=#ED7100;strokeColor=none;dashed=0;verticalLabelPosition=bottom;verticalAlign=top;align=center;html=1;fontSize=12;fontStyle=0;aspect=fixed;pointerEvents=1;shape=mxgraph.aws4.container_1;" vertex="1" parent="ElAwQmVQCS1_ze1naP4R-7">
          <mxGeometry x="180.25" y="47.5" width="48" height="31" as="geometry" />
        </mxCell>
        <mxCell id="ElAwQmVQCS1_ze1naP4R-12" value="grafana" style="sketch=0;outlineConnect=0;fontColor=#232F3E;gradientColor=none;fillColor=#ED7100;strokeColor=none;dashed=0;verticalLabelPosition=bottom;verticalAlign=top;align=center;html=1;fontSize=12;fontStyle=0;aspect=fixed;pointerEvents=1;shape=mxgraph.aws4.container_1;" vertex="1" parent="ElAwQmVQCS1_ze1naP4R-7">
          <mxGeometry x="180.25" y="113.5" width="48" height="31" as="geometry" />
        </mxCell>
        <mxCell id="ElAwQmVQCS1_ze1naP4R-13" value="prometheus" style="sketch=0;outlineConnect=0;fontColor=#232F3E;gradientColor=none;fillColor=#ED7100;strokeColor=none;dashed=0;verticalLabelPosition=bottom;verticalAlign=top;align=center;html=1;fontSize=12;fontStyle=0;aspect=fixed;pointerEvents=1;shape=mxgraph.aws4.container_1;" vertex="1" parent="ElAwQmVQCS1_ze1naP4R-7">
          <mxGeometry x="252.25" y="113.5" width="48" height="31" as="geometry" />
        </mxCell>
        <mxCell id="ElAwQmVQCS1_ze1naP4R-14" value="&lt;div&gt;argoCD&lt;/div&gt;" style="sketch=0;outlineConnect=0;fontColor=#232F3E;gradientColor=none;fillColor=#ED7100;strokeColor=none;dashed=0;verticalLabelPosition=bottom;verticalAlign=top;align=center;html=1;fontSize=12;fontStyle=0;aspect=fixed;pointerEvents=1;shape=mxgraph.aws4.container_1;" vertex="1" parent="ElAwQmVQCS1_ze1naP4R-7">
          <mxGeometry x="109.25" y="113.5" width="48" height="31" as="geometry" />
        </mxCell>
        <mxCell id="ElAwQmVQCS1_ze1naP4R-15" value="&lt;font style=&quot;font-size: 36px;&quot;&gt;Diagrama de componentes Sigab - ProducciÃ³n&lt;/font&gt;" style="text;strokeColor=none;fillColor=none;html=1;fontSize=24;fontStyle=1;verticalAlign=middle;align=center;" vertex="1" parent="1">
          <mxGeometry x="-30" y="-820" width="1620" height="60" as="geometry" />
        </mxCell>
        <mxCell id="ElAwQmVQCS1_ze1naP4R-16" style="edgeStyle=orthogonalEdgeStyle;rounded=0;orthogonalLoop=1;jettySize=auto;html=1;entryX=1;entryY=0.5;entryDx=0;entryDy=0;entryPerimeter=0;" edge="1" parent="1" source="ElAwQmVQCS1_ze1naP4R-8" target="ElAwQmVQCS1_ze1naP4R-3">
          <mxGeometry relative="1" as="geometry">
            <Array as="points">
              <mxPoint x="160" y="-372" />
              <mxPoint x="160" y="-531" />
            </Array>
          </mxGeometry>
        </mxCell>
        <mxCell id="ElAwQmVQCS1_ze1naP4R-17" style="edgeStyle=orthogonalEdgeStyle;rounded=0;orthogonalLoop=1;jettySize=auto;html=1;entryX=1;entryY=0.5;entryDx=0;entryDy=0;entryPerimeter=0;" edge="1" parent="1" source="ElAwQmVQCS1_ze1naP4R-8" target="ElAwQmVQCS1_ze1naP4R-4">
          <mxGeometry relative="1" as="geometry" />
        </mxCell>
        <mxCell id="ElAwQmVQCS1_ze1naP4R-18" style="edgeStyle=orthogonalEdgeStyle;rounded=0;orthogonalLoop=1;jettySize=auto;html=1;entryX=1;entryY=0.5;entryDx=0;entryDy=0;entryPerimeter=0;" edge="1" parent="1" source="ElAwQmVQCS1_ze1naP4R-8" target="ElAwQmVQCS1_ze1naP4R-6">
          <mxGeometry relative="1" as="geometry">
            <Array as="points">
              <mxPoint x="160" y="-372" />
              <mxPoint x="160" y="-211" />
            </Array>
          </mxGeometry>
        </mxCell>
        <mxCell id="ElAwQmVQCS1_ze1naP4R-19" value="Cluster de Kubernetes" style="sketch=0;points=[[0,0,0],[0.25,0,0],[0.5,0,0],[0.75,0,0],[1,0,0],[0,1,0],[0.25,1,0],[0.5,1,0],[0.75,1,0],[1,1,0],[0,0.25,0],[0,0.5,0],[0,0.75,0],[1,0.25,0],[1,0.5,0],[1,0.75,0]];outlineConnect=0;fontColor=#232F3E;fillColor=#ED7100;strokeColor=#ffffff;dashed=0;verticalLabelPosition=bottom;verticalAlign=top;align=center;html=1;fontSize=12;fontStyle=0;aspect=fixed;shape=mxgraph.aws4.resourceIcon;resIcon=mxgraph.aws4.eks;" vertex="1" parent="1">
          <mxGeometry x="291" y="-180" width="78" height="78" as="geometry" />
        </mxCell>
        <mxCell id="ElAwQmVQCS1_ze1naP4R-20" style="edgeStyle=orthogonalEdgeStyle;rounded=0;orthogonalLoop=1;jettySize=auto;html=1;entryX=0.157;entryY=1.017;entryDx=0;entryDy=0;entryPerimeter=0;" edge="1" parent="1" source="ElAwQmVQCS1_ze1naP4R-19" target="ElAwQmVQCS1_ze1naP4R-7">
          <mxGeometry relative="1" as="geometry" />
        </mxCell>
        <mxCell id="ElAwQmVQCS1_ze1naP4R-21" value="&lt;div&gt;ECR&lt;/div&gt;&lt;div&gt;Repositorio de imagenes&lt;br&gt;&lt;/div&gt;" style="sketch=0;points=[[0,0,0],[0.25,0,0],[0.5,0,0],[0.75,0,0],[1,0,0],[0,1,0],[0.25,1,0],[0.5,1,0],[0.75,1,0],[1,1,0],[0,0.25,0],[0,0.5,0],[0,0.75,0],[1,0.25,0],[1,0.5,0],[1,0.75,0]];outlineConnect=0;fontColor=#232F3E;fillColor=#ED7100;strokeColor=#ffffff;dashed=0;verticalLabelPosition=bottom;verticalAlign=top;align=center;html=1;fontSize=12;fontStyle=0;aspect=fixed;shape=mxgraph.aws4.resourceIcon;resIcon=mxgraph.aws4.ecr;" vertex="1" parent="1">
          <mxGeometry x="442" y="-180" width="78" height="78" as="geometry" />
        </mxCell>
        <mxCell id="ElAwQmVQCS1_ze1naP4R-22" style="edgeStyle=orthogonalEdgeStyle;rounded=0;orthogonalLoop=1;jettySize=auto;html=1;entryX=0.631;entryY=1.013;entryDx=0;entryDy=0;entryPerimeter=0;" edge="1" parent="1" source="ElAwQmVQCS1_ze1naP4R-21" target="ElAwQmVQCS1_ze1naP4R-7">
          <mxGeometry relative="1" as="geometry" />
        </mxCell>
        <mxCell id="ElAwQmVQCS1_ze1naP4R-24" style="edgeStyle=orthogonalEdgeStyle;rounded=0;orthogonalLoop=1;jettySize=auto;html=1;" edge="1" parent="1" source="ElAwQmVQCS1_ze1naP4R-1" target="ElAwQmVQCS1_ze1naP4R-8">
          <mxGeometry relative="1" as="geometry" />
        </mxCell>
        <mxCell id="ElAwQmVQCS1_ze1naP4R-25" value="WAF" style="sketch=0;points=[[0,0,0],[0.25,0,0],[0.5,0,0],[0.75,0,0],[1,0,0],[0,1,0],[0.25,1,0],[0.5,1,0],[0.75,1,0],[1,1,0],[0,0.25,0],[0,0.5,0],[0,0.75,0],[1,0.25,0],[1,0.5,0],[1,0.75,0]];outlineConnect=0;fontColor=#232F3E;fillColor=#DD344C;strokeColor=#ffffff;dashed=0;verticalLabelPosition=bottom;verticalAlign=top;align=center;html=1;fontSize=12;fontStyle=0;aspect=fixed;shape=mxgraph.aws4.resourceIcon;resIcon=mxgraph.aws4.waf;" vertex="1" parent="1">
          <mxGeometry x="990" y="-410" width="78" height="78" as="geometry" />
        </mxCell>
        <mxCell id="ElAwQmVQCS1_ze1naP4R-26" style="edgeStyle=orthogonalEdgeStyle;rounded=0;orthogonalLoop=1;jettySize=auto;html=1;entryX=0;entryY=0.5;entryDx=0;entryDy=0;entryPerimeter=0;" edge="1" parent="1" source="ElAwQmVQCS1_ze1naP4R-1" target="ElAwQmVQCS1_ze1naP4R-25">
          <mxGeometry relative="1" as="geometry" />
        </mxCell>
        <mxCell id="ElAwQmVQCS1_ze1naP4R-27" style="edgeStyle=orthogonalEdgeStyle;rounded=0;orthogonalLoop=1;jettySize=auto;html=1;" edge="1" parent="1" source="ElAwQmVQCS1_ze1naP4R-28" target="ElAwQmVQCS1_ze1naP4R-107">
          <mxGeometry relative="1" as="geometry">
            <Array as="points">
              <mxPoint x="-400" y="-343" />
              <mxPoint x="-400" y="-343" />
            </Array>
          </mxGeometry>
        </mxCell>
        <mxCell id="ElAwQmVQCS1_ze1naP4R-28" value="&lt;font color=&quot;#c925d1&quot;&gt;Bases de datos&amp;nbsp;&lt;/font&gt;" style="points=[[0,0],[0.25,0],[0.5,0],[0.75,0],[1,0],[1,0.25],[1,0.5],[1,0.75],[1,1],[0.75,1],[0.5,1],[0.25,1],[0,1],[0,0.75],[0,0.5],[0,0.25]];outlineConnect=0;gradientColor=none;html=1;whiteSpace=wrap;fontSize=12;fontStyle=0;container=1;pointerEvents=0;collapsible=0;recursiveResize=0;shape=mxgraph.aws4.group;grIcon=mxgraph.aws4.group_ec2_instance_contents;strokeColor=#C925D1;fillColor=none;verticalAlign=top;align=left;spacingLeft=30;fontColor=#D86613;dashed=0;" vertex="1" parent="1">
          <mxGeometry x="-290" y="-439.25" width="190" height="135.5" as="geometry" />
        </mxCell>
        <mxCell id="ElAwQmVQCS1_ze1naP4R-29" value="Public" style="text;html=1;align=center;verticalAlign=middle;resizable=0;points=[];autosize=1;strokeColor=none;fillColor=none;" vertex="1" parent="ElAwQmVQCS1_ze1naP4R-28">
          <mxGeometry x="10" y="102.25" width="60" height="30" as="geometry" />
        </mxCell>
        <mxCell id="ElAwQmVQCS1_ze1naP4R-30" value="" style="sketch=0;shadow=0;dashed=0;html=1;strokeColor=none;labelPosition=center;verticalLabelPosition=bottom;verticalAlign=top;outlineConnect=0;align=center;shape=mxgraph.office.databases.database_mini_3;fillColor=#C925D1;" vertex="1" parent="ElAwQmVQCS1_ze1naP4R-28">
          <mxGeometry x="27.5" y="48.5" width="35" height="57" as="geometry" />
        </mxCell>
        <mxCell id="ElAwQmVQCS1_ze1naP4R-31" value="" style="sketch=0;shadow=0;dashed=0;html=1;strokeColor=none;labelPosition=center;verticalLabelPosition=bottom;verticalAlign=top;outlineConnect=0;align=center;shape=mxgraph.office.databases.database_mini_3;fillColor=#C925D1;" vertex="1" parent="ElAwQmVQCS1_ze1naP4R-28">
          <mxGeometry x="127.5" y="48.5" width="35" height="57" as="geometry" />
        </mxCell>
        <mxCell id="ElAwQmVQCS1_ze1naP4R-32" value="datamining" style="text;html=1;align=center;verticalAlign=middle;resizable=0;points=[];autosize=1;strokeColor=none;fillColor=none;" vertex="1" parent="ElAwQmVQCS1_ze1naP4R-28">
          <mxGeometry x="100" y="105.5" width="80" height="30" as="geometry" />
        </mxCell>
        <mxCell id="ElAwQmVQCS1_ze1naP4R-33" style="edgeStyle=orthogonalEdgeStyle;rounded=0;orthogonalLoop=1;jettySize=auto;html=1;entryX=1;entryY=0.5;entryDx=0;entryDy=0;entryPerimeter=0;" edge="1" parent="1" source="ElAwQmVQCS1_ze1naP4R-2" target="ElAwQmVQCS1_ze1naP4R-25">
          <mxGeometry relative="1" as="geometry" />
        </mxCell>
        <mxCell id="ElAwQmVQCS1_ze1naP4R-34" style="edgeStyle=orthogonalEdgeStyle;rounded=0;orthogonalLoop=1;jettySize=auto;html=1;" edge="1" parent="1" source="ElAwQmVQCS1_ze1naP4R-35" target="ElAwQmVQCS1_ze1naP4R-1">
          <mxGeometry relative="1" as="geometry" />
        </mxCell>
        <mxCell id="ElAwQmVQCS1_ze1naP4R-35" value="Certificate manager" style="sketch=0;points=[[0,0,0],[0.25,0,0],[0.5,0,0],[0.75,0,0],[1,0,0],[0,1,0],[0.25,1,0],[0.5,1,0],[0.75,1,0],[1,1,0],[0,0.25,0],[0,0.5,0],[0,0.75,0],[1,0.25,0],[1,0.5,0],[1,0.75,0]];outlineConnect=0;fontColor=#232F3E;fillColor=#DD344C;strokeColor=#ffffff;dashed=0;verticalLabelPosition=bottom;verticalAlign=top;align=center;html=1;fontSize=12;fontStyle=0;aspect=fixed;shape=mxgraph.aws4.resourceIcon;resIcon=mxgraph.aws4.certificate_manager_3;" vertex="1" parent="1">
          <mxGeometry x="760" y="-630" width="78" height="78" as="geometry" />
        </mxCell>
        <mxCell id="ElAwQmVQCS1_ze1naP4R-36" value="Concesionarios" style="image;html=1;image=img/lib/clip_art/networking/Cloud_Server_128x128.png" vertex="1" parent="1">
          <mxGeometry x="1490" y="-610" width="100" height="90" as="geometry" />
        </mxCell>
        <mxCell id="ElAwQmVQCS1_ze1naP4R-37" style="edgeStyle=orthogonalEdgeStyle;rounded=0;orthogonalLoop=1;jettySize=auto;html=1;entryX=1;entryY=0.5;entryDx=0;entryDy=0;entryPerimeter=0;" edge="1" parent="1" source="ElAwQmVQCS1_ze1naP4R-36" target="ElAwQmVQCS1_ze1naP4R-2">
          <mxGeometry relative="1" as="geometry" />
        </mxCell>
        <mxCell id="ElAwQmVQCS1_ze1naP4R-38" value="Sitios web" style="ellipse;shape=cloud;whiteSpace=wrap;html=1;fillColor=#fff2cc;strokeColor=#d6b656;" vertex="1" parent="1">
          <mxGeometry x="1490" y="-210" width="120" height="80" as="geometry" />
        </mxCell>
        <mxCell id="ElAwQmVQCS1_ze1naP4R-39" style="edgeStyle=orthogonalEdgeStyle;rounded=0;orthogonalLoop=1;jettySize=auto;html=1;entryX=1;entryY=0.5;entryDx=0;entryDy=0;entryPerimeter=0;" edge="1" parent="1" source="ElAwQmVQCS1_ze1naP4R-38" target="ElAwQmVQCS1_ze1naP4R-2">
          <mxGeometry relative="1" as="geometry" />
        </mxCell>
        <mxCell id="ElAwQmVQCS1_ze1naP4R-40" value="Aplicaciones moviles" style="html=1;verticalLabelPosition=bottom;align=center;labelBackgroundColor=#ffffff;verticalAlign=top;strokeWidth=2;strokeColor=#d79b00;shadow=0;dashed=0;shape=mxgraph.ios7.icons.smartphone;fillColor=#ffe6cc;" vertex="1" parent="1">
          <mxGeometry x="1520" y="-404.5" width="40" height="66" as="geometry" />
        </mxCell>
        <mxCell id="ElAwQmVQCS1_ze1naP4R-41" style="edgeStyle=orthogonalEdgeStyle;rounded=0;orthogonalLoop=1;jettySize=auto;html=1;entryX=1;entryY=0.5;entryDx=0;entryDy=0;entryPerimeter=0;" edge="1" parent="1" source="ElAwQmVQCS1_ze1naP4R-40" target="ElAwQmVQCS1_ze1naP4R-2">
          <mxGeometry relative="1" as="geometry" />
        </mxCell>
        <mxCell id="ElAwQmVQCS1_ze1naP4R-42" value="KMS" style="outlineConnect=0;dashed=0;verticalLabelPosition=bottom;verticalAlign=top;align=center;html=1;shape=mxgraph.aws3.kms;fillColor=#759C3E;gradientColor=none;" vertex="1" parent="1">
          <mxGeometry x="1367.5" y="52" width="50" height="66" as="geometry" />
        </mxCell>
        <mxCell id="ElAwQmVQCS1_ze1naP4R-43" value="AWS Config" style="sketch=0;points=[[0,0,0],[0.25,0,0],[0.5,0,0],[0.75,0,0],[1,0,0],[0,1,0],[0.25,1,0],[0.5,1,0],[0.75,1,0],[1,1,0],[0,0.25,0],[0,0.5,0],[0,0.75,0],[1,0.25,0],[1,0.5,0],[1,0.75,0]];points=[[0,0,0],[0.25,0,0],[0.5,0,0],[0.75,0,0],[1,0,0],[0,1,0],[0.25,1,0],[0.5,1,0],[0.75,1,0],[1,1,0],[0,0.25,0],[0,0.5,0],[0,0.75,0],[1,0.25,0],[1,0.5,0],[1,0.75,0]];outlineConnect=0;fontColor=#232F3E;fillColor=#E7157B;strokeColor=#ffffff;dashed=0;verticalLabelPosition=bottom;verticalAlign=top;align=center;html=1;fontSize=12;fontStyle=0;aspect=fixed;shape=mxgraph.aws4.resourceIcon;resIcon=mxgraph.aws4.config;" vertex="1" parent="1">
          <mxGeometry x="1457.5" y="52" width="66" height="66" as="geometry" />
        </mxCell>
        <mxCell id="ElAwQmVQCS1_ze1naP4R-44" value="IAM" style="outlineConnect=0;dashed=0;verticalLabelPosition=bottom;verticalAlign=top;align=center;html=1;shape=mxgraph.aws3.iam;fillColor=#759C3E;gradientColor=none;" vertex="1" parent="1">
          <mxGeometry x="1557.5" y="37" width="42" height="81" as="geometry" />
        </mxCell>
        <mxCell id="ElAwQmVQCS1_ze1naP4R-45" value="SES" style="outlineConnect=0;dashed=0;verticalLabelPosition=bottom;verticalAlign=top;align=center;html=1;shape=mxgraph.aws3.ses;fillColor=#D9A741;gradientColor=none;" vertex="1" parent="1">
          <mxGeometry x="1360" y="162" width="65" height="73" as="geometry" />
        </mxCell>
        <mxCell id="ElAwQmVQCS1_ze1naP4R-46" value="&lt;div&gt;Secrets&lt;/div&gt;&lt;div&gt;manager&lt;/div&gt;" style="sketch=0;points=[[0,0,0],[0.25,0,0],[0.5,0,0],[0.75,0,0],[1,0,0],[0,1,0],[0.25,1,0],[0.5,1,0],[0.75,1,0],[1,1,0],[0,0.25,0],[0,0.5,0],[0,0.75,0],[1,0.25,0],[1,0.5,0],[1,0.75,0]];outlineConnect=0;fontColor=#232F3E;fillColor=#DD344C;strokeColor=#ffffff;dashed=0;verticalLabelPosition=bottom;verticalAlign=top;align=center;html=1;fontSize=12;fontStyle=0;aspect=fixed;shape=mxgraph.aws4.resourceIcon;resIcon=mxgraph.aws4.secrets_manager;" vertex="1" parent="1">
          <mxGeometry x="1451.5" y="162" width="78" height="78" as="geometry" />
        </mxCell>
        <mxCell id="ElAwQmVQCS1_ze1naP4R-47" value="&lt;div&gt;Buckets&lt;/div&gt;&lt;div&gt;&lt;div&gt;web.sigab.gov.co&lt;/div&gt;ciudadano.sigab.gov.co&lt;/div&gt;&lt;div&gt;weboperaciones.sigab.gov.co&lt;/div&gt;&lt;div&gt;Bucket backups sitios&lt;/div&gt;&lt;div&gt;&lt;br&gt;&lt;/div&gt;" style="sketch=0;points=[[0,0,0],[0.25,0,0],[0.5,0,0],[0.75,0,0],[1,0,0],[0,1,0],[0.25,1,0],[0.5,1,0],[0.75,1,0],[1,1,0],[0,0.25,0],[0,0.5,0],[0,0.75,0],[1,0.25,0],[1,0.5,0],[1,0.75,0]];outlineConnect=0;fontColor=#232F3E;fillColor=#7AA116;strokeColor=#ffffff;dashed=0;verticalLabelPosition=bottom;verticalAlign=top;align=center;html=1;fontSize=12;fontStyle=0;aspect=fixed;shape=mxgraph.aws4.resourceIcon;resIcon=mxgraph.aws4.s3;" vertex="1" parent="1">
          <mxGeometry x="985.5" y="-630" width="78" height="78" as="geometry" />
        </mxCell>
        <mxCell id="ElAwQmVQCS1_ze1naP4R-48" value="&lt;div&gt;Distribuciones&lt;/div&gt;&lt;div&gt;web.sigab.gov.co&lt;/div&gt;&lt;div&gt;ciudadano.sigab.gov.co&lt;br&gt;&lt;/div&gt;&lt;div&gt;&lt;div&gt;weboperaciones.sigab.gov.co&lt;/div&gt;&lt;/div&gt;&lt;div&gt;&lt;br&gt;&lt;/div&gt;" style="sketch=0;points=[[0,0,0],[0.25,0,0],[0.5,0,0],[0.75,0,0],[1,0,0],[0,1,0],[0.25,1,0],[0.5,1,0],[0.75,1,0],[1,1,0],[0,0.25,0],[0,0.5,0],[0,0.75,0],[1,0.25,0],[1,0.5,0],[1,0.75,0]];outlineConnect=0;fontColor=#232F3E;fillColor=#8C4FFF;strokeColor=#ffffff;dashed=0;verticalLabelPosition=bottom;verticalAlign=top;align=center;html=1;fontSize=12;fontStyle=0;aspect=fixed;shape=mxgraph.aws4.resourceIcon;resIcon=mxgraph.aws4.cloudfront;" vertex="1" parent="1">
          <mxGeometry x="1230" y="-630" width="78" height="78" as="geometry" />
        </mxCell>
        <mxCell id="ElAwQmVQCS1_ze1naP4R-49" style="edgeStyle=orthogonalEdgeStyle;rounded=0;orthogonalLoop=1;jettySize=auto;html=1;" edge="1" parent="1" source="ElAwQmVQCS1_ze1naP4R-2">
          <mxGeometry relative="1" as="geometry">
            <mxPoint x="1269" y="-480" as="targetPoint" />
          </mxGeometry>
        </mxCell>
        <mxCell id="ElAwQmVQCS1_ze1naP4R-50" style="edgeStyle=orthogonalEdgeStyle;rounded=0;orthogonalLoop=1;jettySize=auto;html=1;entryX=1;entryY=0.5;entryDx=0;entryDy=0;entryPerimeter=0;" edge="1" parent="1" source="ElAwQmVQCS1_ze1naP4R-48" target="ElAwQmVQCS1_ze1naP4R-47">
          <mxGeometry relative="1" as="geometry" />
        </mxCell>
        <mxCell id="ElAwQmVQCS1_ze1naP4R-51" value="App Ciudadano&amp;nbsp;&lt;div&gt;ANDROID&lt;/div&gt;" style="text;html=1;align=center;verticalAlign=middle;resizable=0;points=[];autosize=1;strokeColor=none;fillColor=none;" vertex="1" parent="1">
          <mxGeometry x="1624" y="-472" width="110" height="40" as="geometry" />
        </mxCell>
        <mxCell id="ElAwQmVQCS1_ze1naP4R-52" value="App ciudadano&amp;nbsp;&lt;div&gt;IOS&lt;/div&gt;" style="text;html=1;align=center;verticalAlign=middle;resizable=0;points=[];autosize=1;strokeColor=none;fillColor=none;" vertex="1" parent="1">
          <mxGeometry x="1622.5" y="-239" width="110" height="40" as="geometry" />
        </mxCell>
        <mxCell id="ElAwQmVQCS1_ze1naP4R-53" value="" style="sketch=0;pointerEvents=1;shadow=0;dashed=0;html=1;strokeColor=#d79b00;fillColor=#ffe6cc;labelPosition=center;verticalLabelPosition=bottom;verticalAlign=top;outlineConnect=0;align=center;shape=mxgraph.office.devices.cell_phone_generic;" vertex="1" parent="1">
          <mxGeometry x="1669.5" y="-509" width="21" height="37" as="geometry" />
        </mxCell>
        <mxCell id="ElAwQmVQCS1_ze1naP4R-54" value="" style="sketch=0;pointerEvents=1;shadow=0;dashed=0;html=1;strokeColor=#d79b00;fillColor=#ffe6cc;labelPosition=center;verticalLabelPosition=bottom;verticalAlign=top;outlineConnect=0;align=center;shape=mxgraph.office.devices.cell_phone_windows_phone_standalone;" vertex="1" parent="1">
          <mxGeometry x="1667" y="-280" width="24" height="42" as="geometry" />
        </mxCell>
        <mxCell id="ElAwQmVQCS1_ze1naP4R-55" style="edgeStyle=orthogonalEdgeStyle;rounded=0;orthogonalLoop=1;jettySize=auto;html=1;entryX=1.022;entryY=0.379;entryDx=0;entryDy=0;entryPerimeter=0;" edge="1" parent="1" source="ElAwQmVQCS1_ze1naP4R-53" target="ElAwQmVQCS1_ze1naP4R-40">
          <mxGeometry relative="1" as="geometry" />
        </mxCell>
        <mxCell id="ElAwQmVQCS1_ze1naP4R-56" value="" style="edgeStyle=orthogonalEdgeStyle;rounded=0;orthogonalLoop=1;jettySize=auto;html=1;" edge="1" parent="1" source="ElAwQmVQCS1_ze1naP4R-57" target="ElAwQmVQCS1_ze1naP4R-61">
          <mxGeometry relative="1" as="geometry" />
        </mxCell>
        <mxCell id="ElAwQmVQCS1_ze1naP4R-57" value="Sigab Framework" style="sketch=0;points=[[0,0,0],[0.25,0,0],[0.5,0,0],[0.75,0,0],[1,0,0],[0,1,0],[0.25,1,0],[0.5,1,0],[0.75,1,0],[1,1,0],[0,0.25,0],[0,0.5,0],[0,0.75,0],[1,0.25,0],[1,0.5,0],[1,0.75,0]];outlineConnect=0;fontColor=#232F3E;fillColor=#C925D1;strokeColor=#ffffff;dashed=0;verticalLabelPosition=bottom;verticalAlign=top;align=center;html=1;fontSize=12;fontStyle=0;aspect=fixed;shape=mxgraph.aws4.resourceIcon;resIcon=mxgraph.aws4.rds;" vertex="1" parent="1">
          <mxGeometry x="-30" y="-708" width="78" height="78" as="geometry" />
        </mxCell>
        <mxCell id="ElAwQmVQCS1_ze1naP4R-58" style="edgeStyle=orthogonalEdgeStyle;rounded=0;orthogonalLoop=1;jettySize=auto;html=1;entryX=1;entryY=0.5;entryDx=0;entryDy=0;" edge="1" parent="1" source="ElAwQmVQCS1_ze1naP4R-59" target="ElAwQmVQCS1_ze1naP4R-107">
          <mxGeometry relative="1" as="geometry">
            <Array as="points">
              <mxPoint x="-310" y="-51" />
              <mxPoint x="-310" y="-343" />
            </Array>
          </mxGeometry>
        </mxCell>
        <mxCell id="ElAwQmVQCS1_ze1naP4R-59" value="Redis&lt;div&gt;Base de datos no SQL&lt;/div&gt;&lt;div&gt;para configuraciÃ³n de procesos&lt;/div&gt;" style="sketch=0;points=[[0,0,0],[0.25,0,0],[0.5,0,0],[0.75,0,0],[1,0,0],[0,1,0],[0.25,1,0],[0.5,1,0],[0.75,1,0],[1,1,0],[0,0.25,0],[0,0.5,0],[0,0.75,0],[1,0.25,0],[1,0.5,0],[1,0.75,0]];outlineConnect=0;fontColor=#232F3E;fillColor=#FF0000;strokeColor=#ffffff;dashed=0;verticalLabelPosition=bottom;verticalAlign=top;align=center;html=1;fontSize=12;fontStyle=0;aspect=fixed;shape=mxgraph.aws4.resourceIcon;resIcon=mxgraph.aws4.rds;" vertex="1" parent="1">
          <mxGeometry x="-30" y="-90" width="78" height="78" as="geometry" />
        </mxCell>
        <mxCell id="ElAwQmVQCS1_ze1naP4R-60" value="" style="edgeStyle=orthogonalEdgeStyle;rounded=0;orthogonalLoop=1;jettySize=auto;html=1;" edge="1" parent="1" source="ElAwQmVQCS1_ze1naP4R-61" target="ElAwQmVQCS1_ze1naP4R-63">
          <mxGeometry relative="1" as="geometry" />
        </mxCell>
        <mxCell id="ElAwQmVQCS1_ze1naP4R-61" value="Base de datos App_adm" style="sketch=0;points=[[0,0,0],[0.25,0,0],[0.5,0,0],[0.75,0,0],[1,0,0],[0,1,0],[0.25,1,0],[0.5,1,0],[0.75,1,0],[1,1,0],[0,0.25,0],[0,0.5,0],[0,0.75,0],[1,0.25,0],[1,0.5,0],[1,0.75,0]];outlineConnect=0;fontColor=#232F3E;fillColor=#C925D1;strokeColor=#ffffff;dashed=0;verticalLabelPosition=bottom;verticalAlign=top;align=center;html=1;fontSize=12;fontStyle=0;aspect=fixed;shape=mxgraph.aws4.resourceIcon;resIcon=mxgraph.aws4.rds;" vertex="1" parent="1">
          <mxGeometry x="-193" y="-708" width="78" height="78" as="geometry" />
        </mxCell>
        <mxCell id="ElAwQmVQCS1_ze1naP4R-62" style="edgeStyle=orthogonalEdgeStyle;rounded=0;orthogonalLoop=1;jettySize=auto;html=1;entryX=1;entryY=0.5;entryDx=0;entryDy=0;" edge="1" parent="1" source="ElAwQmVQCS1_ze1naP4R-63" target="ElAwQmVQCS1_ze1naP4R-107">
          <mxGeometry relative="1" as="geometry">
            <Array as="points">
              <mxPoint x="-630" y="-669" />
              <mxPoint x="-630" y="-343" />
            </Array>
          </mxGeometry>
        </mxCell>
        <mxCell id="ElAwQmVQCS1_ze1naP4R-63" value="SEQUENCIAS" style="sketch=0;points=[[0,0,0],[0.25,0,0],[0.5,0,0],[0.75,0,0],[1,0,0],[0,1,0],[0.25,1,0],[0.5,1,0],[0.75,1,0],[1,1,0],[0,0.25,0],[0,0.5,0],[0,0.75,0],[1,0.25,0],[1,0.5,0],[1,0.75,0]];outlineConnect=0;fontColor=#232F3E;fillColor=#C925D1;strokeColor=#ffffff;dashed=0;verticalLabelPosition=bottom;verticalAlign=top;align=center;html=1;fontSize=12;fontStyle=0;aspect=fixed;shape=mxgraph.aws4.resourceIcon;resIcon=mxgraph.aws4.rds;" vertex="1" parent="1">
          <mxGeometry x="-360" y="-708" width="78" height="78" as="geometry" />
        </mxCell>
        <mxCell id="ElAwQmVQCS1_ze1naP4R-64" style="edgeStyle=orthogonalEdgeStyle;rounded=0;orthogonalLoop=1;jettySize=auto;html=1;entryX=0;entryY=0.5;entryDx=0;entryDy=0;entryPerimeter=0;" edge="1" parent="1" source="ElAwQmVQCS1_ze1naP4R-28" target="ElAwQmVQCS1_ze1naP4R-4">
          <mxGeometry relative="1" as="geometry" />
        </mxCell>
        <mxCell id="ElAwQmVQCS1_ze1naP4R-65" value="" style="edgeStyle=orthogonalEdgeStyle;rounded=0;orthogonalLoop=1;jettySize=auto;html=1;" edge="1" parent="1" source="ElAwQmVQCS1_ze1naP4R-67" target="ElAwQmVQCS1_ze1naP4R-3">
          <mxGeometry relative="1" as="geometry" />
        </mxCell>
        <mxCell id="ElAwQmVQCS1_ze1naP4R-66" style="edgeStyle=orthogonalEdgeStyle;rounded=0;orthogonalLoop=1;jettySize=auto;html=1;" edge="1" parent="1" source="ElAwQmVQCS1_ze1naP4R-67" target="ElAwQmVQCS1_ze1naP4R-107">
          <mxGeometry relative="1" as="geometry">
            <Array as="points">
              <mxPoint x="-630" y="-531" />
              <mxPoint x="-630" y="-343" />
            </Array>
          </mxGeometry>
        </mxCell>
        <mxCell id="ElAwQmVQCS1_ze1naP4R-67" value="&lt;font color=&quot;#c925d1&quot;&gt;Bases de datos&amp;nbsp;&lt;/font&gt;" style="points=[[0,0],[0.25,0],[0.5,0],[0.75,0],[1,0],[1,0.25],[1,0.5],[1,0.75],[1,1],[0.75,1],[0.5,1],[0.25,1],[0,1],[0,0.75],[0,0.5],[0,0.25]];outlineConnect=0;gradientColor=none;html=1;whiteSpace=wrap;fontSize=12;fontStyle=0;container=1;pointerEvents=0;collapsible=0;recursiveResize=0;shape=mxgraph.aws4.group;grIcon=mxgraph.aws4.group_ec2_instance_contents;strokeColor=#C925D1;fillColor=none;verticalAlign=top;align=left;spacingLeft=30;fontColor=#D86613;dashed=0;" vertex="1" parent="1">
          <mxGeometry x="-580" y="-598.75" width="480" height="135.5" as="geometry" />
        </mxCell>
        <mxCell id="ElAwQmVQCS1_ze1naP4R-68" value="" style="sketch=0;shadow=0;dashed=0;html=1;strokeColor=none;labelPosition=center;verticalLabelPosition=bottom;verticalAlign=top;outlineConnect=0;align=center;shape=mxgraph.office.databases.database_mini_3;fillColor=#C925D1;" vertex="1" parent="ElAwQmVQCS1_ze1naP4R-67">
          <mxGeometry x="122.5" y="40" width="35" height="57" as="geometry" />
        </mxCell>
        <mxCell id="ElAwQmVQCS1_ze1naP4R-69" value="Public" style="text;html=1;align=center;verticalAlign=middle;resizable=0;points=[];autosize=1;strokeColor=none;fillColor=none;" vertex="1" parent="ElAwQmVQCS1_ze1naP4R-67">
          <mxGeometry x="110" y="97" width="60" height="30" as="geometry" />
        </mxCell>
        <mxCell id="ElAwQmVQCS1_ze1naP4R-70" value="" style="sketch=0;shadow=0;dashed=0;html=1;strokeColor=none;labelPosition=center;verticalLabelPosition=bottom;verticalAlign=top;outlineConnect=0;align=center;shape=mxgraph.office.databases.database_mini_3;fillColor=#C925D1;" vertex="1" parent="ElAwQmVQCS1_ze1naP4R-67">
          <mxGeometry x="217.5" y="40" width="35" height="57" as="geometry" />
        </mxCell>
        <mxCell id="ElAwQmVQCS1_ze1naP4R-71" value="particionseguimiento" style="text;html=1;align=center;verticalAlign=middle;resizable=0;points=[];autosize=1;strokeColor=none;fillColor=none;" vertex="1" parent="ElAwQmVQCS1_ze1naP4R-67">
          <mxGeometry x="170" y="97" width="130" height="30" as="geometry" />
        </mxCell>
        <mxCell id="ElAwQmVQCS1_ze1naP4R-72" value="" style="sketch=0;shadow=0;dashed=0;html=1;strokeColor=none;labelPosition=center;verticalLabelPosition=bottom;verticalAlign=top;outlineConnect=0;align=center;shape=mxgraph.office.databases.database_mini_3;fillColor=#C925D1;" vertex="1" parent="ElAwQmVQCS1_ze1naP4R-67">
          <mxGeometry x="322.5" y="40" width="35" height="57" as="geometry" />
        </mxCell>
        <mxCell id="ElAwQmVQCS1_ze1naP4R-73" value="particionlogs" style="text;html=1;align=center;verticalAlign=middle;resizable=0;points=[];autosize=1;strokeColor=none;fillColor=none;" vertex="1" parent="ElAwQmVQCS1_ze1naP4R-67">
          <mxGeometry x="295" y="97" width="90" height="30" as="geometry" />
        </mxCell>
        <mxCell id="ElAwQmVQCS1_ze1naP4R-74" value="" style="sketch=0;shadow=0;dashed=0;html=1;strokeColor=none;labelPosition=center;verticalLabelPosition=bottom;verticalAlign=top;outlineConnect=0;align=center;shape=mxgraph.office.databases.database_mini_3;fillColor=#C925D1;" vertex="1" parent="ElAwQmVQCS1_ze1naP4R-67">
          <mxGeometry x="422.5" y="40" width="35" height="57" as="geometry" />
        </mxCell>
        <mxCell id="ElAwQmVQCS1_ze1naP4R-75" value="indicadores" style="text;html=1;align=center;verticalAlign=middle;resizable=0;points=[];autosize=1;strokeColor=none;fillColor=none;" vertex="1" parent="ElAwQmVQCS1_ze1naP4R-67">
          <mxGeometry x="400" y="97" width="80" height="30" as="geometry" />
        </mxCell>
        <mxCell id="ElAwQmVQCS1_ze1naP4R-76" value="" style="sketch=0;shadow=0;dashed=0;html=1;strokeColor=none;labelPosition=center;verticalLabelPosition=bottom;verticalAlign=top;outlineConnect=0;align=center;shape=mxgraph.office.databases.database_mini_3;fillColor=#C925D1;" vertex="1" parent="ElAwQmVQCS1_ze1naP4R-67">
          <mxGeometry x="42.5" y="40" width="35" height="57" as="geometry" />
        </mxCell>
        <mxCell id="ElAwQmVQCS1_ze1naP4R-77" value="esqsolg_sigabgbal" style="text;html=1;align=center;verticalAlign=middle;resizable=0;points=[];autosize=1;strokeColor=none;fillColor=none;" vertex="1" parent="ElAwQmVQCS1_ze1naP4R-67">
          <mxGeometry x="2.5" y="96.99999999999989" width="120" height="30" as="geometry" />
        </mxCell>
        <mxCell id="ElAwQmVQCS1_ze1naP4R-78" value="" style="edgeStyle=orthogonalEdgeStyle;rounded=0;orthogonalLoop=1;jettySize=auto;html=1;" edge="1" parent="1" source="ElAwQmVQCS1_ze1naP4R-79" target="ElAwQmVQCS1_ze1naP4R-36">
          <mxGeometry relative="1" as="geometry" />
        </mxCell>
        <mxCell id="ElAwQmVQCS1_ze1naP4R-79" value="&lt;font color=&quot;#ffb570&quot;&gt;Concesionarios&lt;/font&gt;" style="points=[[0,0],[0.25,0],[0.5,0],[0.75,0],[1,0],[1,0.25],[1,0.5],[1,0.75],[1,1],[0.75,1],[0.5,1],[0.25,1],[0,1],[0,0.75],[0,0.5],[0,0.25]];outlineConnect=0;gradientColor=none;html=1;whiteSpace=wrap;fontSize=12;fontStyle=0;container=1;pointerEvents=0;collapsible=0;recursiveResize=0;shape=mxgraph.aws4.group;grIcon=mxgraph.aws4.group_ec2_instance_contents;strokeColor=#ecab3c;fillColor=none;verticalAlign=top;align=left;spacingLeft=30;fontColor=#D86613;dashed=0;" vertex="1" parent="1">
          <mxGeometry x="1640" y="-618.75" width="390" height="107.5" as="geometry" />
        </mxCell>
        <mxCell id="ElAwQmVQCS1_ze1naP4R-80" value="" style="sketch=0;pointerEvents=1;shadow=0;dashed=0;html=1;strokeColor=#d79b00;fillColor=#ffe6cc;labelPosition=center;verticalLabelPosition=bottom;verticalAlign=top;outlineConnect=0;align=center;shape=mxgraph.office.concepts.script;" vertex="1" parent="ElAwQmVQCS1_ze1naP4R-79">
          <mxGeometry x="21" y="47.5" width="31" height="28" as="geometry" />
        </mxCell>
        <mxCell id="ElAwQmVQCS1_ze1naP4R-81" value="&lt;font style=&quot;font-size: 10px;&quot;&gt;Lime&lt;/font&gt;" style="text;html=1;align=center;verticalAlign=middle;resizable=0;points=[];autosize=1;strokeColor=none;fillColor=none;" vertex="1" parent="ElAwQmVQCS1_ze1naP4R-79">
          <mxGeometry x="10" y="67.5" width="50" height="30" as="geometry" />
        </mxCell>
        <mxCell id="ElAwQmVQCS1_ze1naP4R-82" value="" style="sketch=0;pointerEvents=1;shadow=0;dashed=0;html=1;strokeColor=#d79b00;fillColor=#ffe6cc;labelPosition=center;verticalLabelPosition=bottom;verticalAlign=top;outlineConnect=0;align=center;shape=mxgraph.office.concepts.script;" vertex="1" parent="ElAwQmVQCS1_ze1naP4R-79">
          <mxGeometry x="89.5" y="47.5" width="31" height="28" as="geometry" />
        </mxCell>
        <mxCell id="ElAwQmVQCS1_ze1naP4R-83" value="&lt;font style=&quot;font-size: 10px;&quot;&gt;Ciudad Limpia&lt;/font&gt;" style="text;html=1;align=center;verticalAlign=middle;resizable=0;points=[];autosize=1;strokeColor=none;fillColor=none;" vertex="1" parent="ElAwQmVQCS1_ze1naP4R-79">
          <mxGeometry x="60" y="67.5" width="90" height="30" as="geometry" />
        </mxCell>
        <mxCell id="ElAwQmVQCS1_ze1naP4R-84" value="" style="sketch=0;pointerEvents=1;shadow=0;dashed=0;html=1;strokeColor=#d79b00;fillColor=#ffe6cc;labelPosition=center;verticalLabelPosition=bottom;verticalAlign=top;outlineConnect=0;align=center;shape=mxgraph.office.concepts.script;" vertex="1" parent="ElAwQmVQCS1_ze1naP4R-79">
          <mxGeometry x="171.5" y="47.5" width="31" height="28" as="geometry" />
        </mxCell>
        <mxCell id="ElAwQmVQCS1_ze1naP4R-85" value="&lt;font style=&quot;font-size: 10px;&quot;&gt;Promoambiental&lt;/font&gt;" style="text;html=1;align=center;verticalAlign=middle;resizable=0;points=[];autosize=1;strokeColor=none;fillColor=none;" vertex="1" parent="ElAwQmVQCS1_ze1naP4R-79">
          <mxGeometry x="140" y="67.5" width="100" height="30" as="geometry" />
        </mxCell>
        <mxCell id="ElAwQmVQCS1_ze1naP4R-86" value="" style="sketch=0;pointerEvents=1;shadow=0;dashed=0;html=1;strokeColor=#d79b00;fillColor=#ffe6cc;labelPosition=center;verticalLabelPosition=bottom;verticalAlign=top;outlineConnect=0;align=center;shape=mxgraph.office.concepts.script;" vertex="1" parent="ElAwQmVQCS1_ze1naP4R-79">
          <mxGeometry x="259.5" y="47.5" width="31" height="28" as="geometry" />
        </mxCell>
        <mxCell id="ElAwQmVQCS1_ze1naP4R-87" value="&lt;font style=&quot;font-size: 10px;&quot;&gt;BogotÃ¡ Limpia&lt;/font&gt;" style="text;html=1;align=center;verticalAlign=middle;resizable=0;points=[];autosize=1;strokeColor=none;fillColor=none;" vertex="1" parent="ElAwQmVQCS1_ze1naP4R-79">
          <mxGeometry x="230" y="67.5" width="90" height="30" as="geometry" />
        </mxCell>
        <mxCell id="ElAwQmVQCS1_ze1naP4R-88" value="" style="sketch=0;pointerEvents=1;shadow=0;dashed=0;html=1;strokeColor=#d79b00;fillColor=#ffe6cc;labelPosition=center;verticalLabelPosition=bottom;verticalAlign=top;outlineConnect=0;align=center;shape=mxgraph.office.concepts.script;" vertex="1" parent="ElAwQmVQCS1_ze1naP4R-79">
          <mxGeometry x="332.5" y="47.5" width="31" height="28" as="geometry" />
        </mxCell>
        <mxCell id="ElAwQmVQCS1_ze1naP4R-89" value="&lt;font style=&quot;font-size: 10px;&quot;&gt;Ãrea Limpia&lt;/font&gt;" style="text;html=1;align=center;verticalAlign=middle;resizable=0;points=[];autosize=1;strokeColor=none;fillColor=none;" vertex="1" parent="ElAwQmVQCS1_ze1naP4R-79">
          <mxGeometry x="310" y="67.5" width="80" height="30" as="geometry" />
        </mxCell>
        <mxCell id="ElAwQmVQCS1_ze1naP4R-90" value="&lt;font color=&quot;#ffb570&quot;&gt;Sitios Web&lt;/font&gt;" style="points=[[0,0],[0.25,0],[0.5,0],[0.75,0],[1,0],[1,0.25],[1,0.5],[1,0.75],[1,1],[0.75,1],[0.5,1],[0.25,1],[0,1],[0,0.75],[0,0.5],[0,0.25]];outlineConnect=0;gradientColor=none;html=1;whiteSpace=wrap;fontSize=12;fontStyle=0;container=1;pointerEvents=0;collapsible=0;recursiveResize=0;shape=mxgraph.aws4.group;grIcon=mxgraph.aws4.group_ec2_instance_contents;strokeColor=#ecab3c;fillColor=none;verticalAlign=top;align=left;spacingLeft=30;fontColor=#D86613;dashed=0;" vertex="1" parent="1">
          <mxGeometry x="1650" y="-190" width="546.25" height="130" as="geometry" />
        </mxCell>
        <mxCell id="ElAwQmVQCS1_ze1naP4R-91" value="&lt;font style=&quot;font-size: 11px;&quot;&gt;&lt;b&gt;Web operaciones&lt;/b&gt;&lt;/font&gt;&lt;div style=&quot;font-size: 11px;&quot;&gt;&lt;font color=&quot;#1929b3&quot; style=&quot;font-size: 11px;&quot;&gt;(webvies desde el portal web autorizado)&lt;/font&gt;&lt;/div&gt;" style="text;html=1;align=center;verticalAlign=middle;resizable=0;points=[];autosize=1;strokeColor=none;fillColor=none;" vertex="1" parent="ElAwQmVQCS1_ze1naP4R-90">
          <mxGeometry x="1.25" y="84" width="220" height="40" as="geometry" />
        </mxCell>
        <mxCell id="ElAwQmVQCS1_ze1naP4R-92" value="" style="sketch=0;pointerEvents=1;shadow=0;dashed=0;html=1;strokeColor=#d79b00;fillColor=#ffe6cc;labelPosition=center;verticalLabelPosition=bottom;verticalAlign=top;outlineConnect=0;align=center;shape=mxgraph.office.concepts.globe_internet;" vertex="1" parent="ElAwQmVQCS1_ze1naP4R-90">
          <mxGeometry x="90" y="46" width="39.5" height="38" as="geometry" />
        </mxCell>
        <mxCell id="ElAwQmVQCS1_ze1naP4R-93" value="&lt;font style=&quot;font-size: 11px;&quot;&gt;&lt;b&gt;Web Ciudadano&lt;/b&gt;&lt;/font&gt;&lt;div style=&quot;font-size: 11px;&quot;&gt;&lt;span style=&quot;accent-color: auto; place-content: normal; place-items: normal; place-self: auto; alignment-baseline: auto; anchor-name: none; animation: 0s ease 0s 1 normal none running none; animation-composition: replace; app-region: none; appearance: none; aspect-ratio: auto; backdrop-filter: none; backface-visibility: visible; background: none 0% 0% / auto repeat scroll padding-box border-box rgba(0, 0, 0, 0); background-blend-mode: normal; baseline-shift: 0px; baseline-source: auto; border-image: none 100% / 1 / 0 stretch; border-color: rgb(68, 114, 196); border-collapse: separate; border-end-end-radius: 0px; border-end-start-radius: 0px; border-width: 0px; border-style: none; border-spacing: 0px; border-start-end-radius: 0px; border-start-start-radius: 0px; border-radius: 0px; inset: auto; box-shadow: none; box-sizing: content-box; break-after: auto; break-before: auto; break-inside: auto; buffered-rendering: auto; caption-side: top; caret-color: rgb(68, 114, 196); clear: none; clip: auto; clip-path: none; clip-rule: nonzero; color: rgb(68, 114, 196); color-interpolation: srgb; color-interpolation-filters: linearrgb; color-rendering: auto; color-scheme: normal; columns: auto; column-fill: balance; gap: normal; column-rule: 0px rgb(68, 114, 196); column-span: none; contain: none; contain-intrinsic-block-size: none; contain-intrinsic-size: none; contain-intrinsic-inline-size: none; container: none; content: normal; content-visibility: visible; counter-increment: none; counter-reset: none; counter-set: none; cursor: text; cx: 0px; cy: 0px; d: none; direction: ltr; display: inline; dominant-baseline: auto; empty-cells: show; field-sizing: fixed; fill: rgb(0, 0, 0); fill-opacity: 1; fill-rule: nonzero; filter: none; flex: 0 1 auto; flex-flow: row; float: none; flood-color: rgb(0, 0, 0); flood-opacity: 1; font-family: Calibri, Calibri_EmbeddedFont, Calibri_MSFontService, sans-serif; font-feature-settings: normal; font-kerning: none; font-optical-sizing: auto; font-palette: normal; font-size-adjust: none; font-stretch: 100%; font-synthesis: weight style small-caps; font-variant-ligatures: none; font-variant-numeric: normal; font-variant-east-asian: normal; font-variant-alternates: normal; font-variant-position: normal; font-variation-settings: normal; font-weight: 700; forced-color-adjust: auto; grid-area: auto; grid: none; height: auto; hyphenate-character: auto; hyphenate-limit-chars: auto; hyphens: manual; image-orientation: from-image; image-rendering: auto; initial-letter: normal; inline-size: auto; inset-area: none; inset-block: auto; inset-inline: auto; isolation: auto; lighting-color: rgb(255, 255, 255); line-height: 19px; list-style: outside none disc; margin: 0px; marker: none; mask: none; mask-type: luminance; math-depth: 0; math-shift: normal; math-style: normal; max-height: none; max-width: none; min-height: 0px; min-width: 0px; mix-blend-mode: normal; object-fit: fill; object-position: 50% 50%; object-view-box: none; offset: normal; opacity: 1; order: 0; outline: rgb(68, 114, 196) none 0px; outline-offset: 0px; overflow: visible; overflow-anchor: auto; overflow-clip-margin: 0px; overflow-wrap: break-word; overlay: none; overscroll-behavior-block: auto; overscroll-behavior-inline: auto; overscroll-behavior: auto; padding: 0.7875px 0px 0px; page: auto; paint-order: normal; perspective: none; perspective-origin: 0px 0px; pointer-events: all; position: static; position-anchor: auto; position-try: none; position-visibility: always; quotes: auto; r: 0px; resize: none; rotate: none; ruby-align: space-around; ruby-position: over; rx: auto; ry: auto; scale: none; scroll-behavior: auto; scroll-margin-block: 0px; scroll-margin: 0px; scroll-margin-inline: 0px; scroll-padding-block: auto; scroll-padding: auto; scroll-padding-inline: auto; scroll-snap-align: none; scroll-snap-stop: normal; scroll-snap-type: none; scroll-timeline: none; scrollbar-color: auto; scrollbar-gutter: auto; scrollbar-width: auto; shape-image-threshold: 0; shape-margin: 0px; shape-outside: none; shape-rendering: auto; speak: normal; stop-color: rgb(0, 0, 0); stop-opacity: 1; stroke: none; stroke-dasharray: none; stroke-dashoffset: 0px; stroke-linecap: butt; stroke-linejoin: miter; stroke-miterlimit: 4; stroke-opacity: 1; stroke-width: 1px; tab-size: 8; table-layout: auto; text-align: left; text-align-last: auto; text-anchor: start; text-combine-upright: none; text-decoration-style: solid; text-decoration-color: rgb(68, 114, 196); text-decoration-skip-ink: none; text-emphasis: none rgb(68, 114, 196); text-emphasis-position: over; text-orientation: mixed; text-overflow: clip; text-rendering: auto; text-shadow: none; text-size-adjust: auto; text-spacing-trim: normal; text-underline-offset: auto; text-underline-position: auto; white-space: pre-wrap; timeline-scope: none; touch-action: pan-x pan-y; transform: none; transform-box: view-box; transform-origin: 0px 0px; transform-style: flat; transition: all; translate: none; unicode-bidi: normal; user-select: text; vector-effect: none; vertical-align: -0.7875px; view-timeline: none; view-transition-class: none; view-transition-name: none; visibility: visible; border-block-end: 0px none rgb(68, 114, 196); border-block-start: 0px none rgb(68, 114, 196); border-inline-end: 0px none rgb(68, 114, 196); -webkit-border-image: none; border-inline-start: 0px none rgb(68, 114, 196); -webkit-box-align: stretch; -webkit-box-decoration-break: slice; -webkit-box-direction: normal; -webkit-box-flex: 0; -webkit-box-ordinal-group: 1; -webkit-box-orient: horizontal; -webkit-box-pack: start; -webkit-font-smoothing: auto; -webkit-line-break: after-white-space; -webkit-locale: &amp;quot;ES-CO&amp;quot;; block-size: auto; margin-block: 0px; margin-inline: 0px; -webkit-mask-box-image-source: none; -webkit-mask-box-image-slice: 0 fill; -webkit-mask-box-image-width: auto; -webkit-mask-box-image-outset: 0; -webkit-mask-box-image-repeat: stretch; max-block-size: none; max-inline-size: none; min-block-size: 0px; min-inline-size: 0px; padding-block: 0.7875px 0px; padding-inline: 0px; -webkit-print-color-adjust: economy; -webkit-rtl-ordering: logical; -webkit-ruby-position: before; -webkit-tap-highlight-color: rgba(0, 0, 0, 0); -webkit-text-combine: none; -webkit-text-fill-color: rgb(68, 114, 196); -webkit-text-orientation: vertical-right; -webkit-text-security: none; -webkit-text-stroke-color: rgb(68, 114, 196); -webkit-user-drag: none; -webkit-user-modify: read-write; -webkit-writing-mode: horizontal-tb; width: auto; will-change: auto; word-break: normal; writing-mode: horizontal-tb; x: 0px; y: 0px; z-index: auto; zoom: 1;&quot; lang=&quot;ES-CO&quot; class=&quot;TextRun SCXP144093218 BCX8&quot; data-contrast=&quot;none&quot; data-usefontface=&quot;false&quot; data-scheme-color=&quot;@4472C4,4,&quot;&gt;&lt;span style=&quot;vertical-align: 0.7875px; line-height: 0px; position: relative;&quot; class=&quot;NormalTextRun SCXP144093218 BCX8&quot;&gt;&lt;font style=&quot;font-size: 11px;&quot;&gt;https://ciudadano.sigab.gov.co/&lt;/font&gt;&lt;/span&gt;&lt;/span&gt;&lt;br&gt;&lt;/div&gt;" style="text;html=1;align=center;verticalAlign=middle;resizable=0;points=[];autosize=1;strokeColor=none;fillColor=none;" vertex="1" parent="ElAwQmVQCS1_ze1naP4R-90">
          <mxGeometry x="221.2500000000001" y="80" width="170" height="50" as="geometry" />
        </mxCell>
        <mxCell id="ElAwQmVQCS1_ze1naP4R-94" value="" style="sketch=0;pointerEvents=1;shadow=0;dashed=0;html=1;strokeColor=#d79b00;fillColor=#FFE6CC;labelPosition=center;verticalLabelPosition=bottom;verticalAlign=top;outlineConnect=0;align=center;shape=mxgraph.office.concepts.globe_internet;" vertex="1" parent="ElAwQmVQCS1_ze1naP4R-90">
          <mxGeometry x="286.5000000000001" y="42" width="39.5" height="38" as="geometry" />
        </mxCell>
        <mxCell id="ElAwQmVQCS1_ze1naP4R-95" value="&lt;div style=&quot;font-size: 11px;&quot;&gt;&lt;span style=&quot;accent-color: auto; place-content: normal; place-items: normal; place-self: auto; alignment-baseline: auto; anchor-name: none; animation: 0s ease 0s 1 normal none running none; animation-composition: replace; app-region: none; appearance: none; aspect-ratio: auto; backdrop-filter: none; backface-visibility: visible; background: none 0% 0% / auto repeat scroll padding-box border-box rgba(0, 0, 0, 0); background-blend-mode: normal; baseline-shift: 0px; baseline-source: auto; border-image: none 100% / 1 / 0 stretch; border-color: rgb(0, 0, 0); border-collapse: separate; border-end-end-radius: 0px; border-end-start-radius: 0px; border-width: 0px; border-style: none; border-spacing: 0px; border-start-end-radius: 0px; border-start-start-radius: 0px; border-radius: 0px; inset: auto; box-shadow: none; box-sizing: content-box; break-after: auto; break-before: auto; break-inside: auto; buffered-rendering: auto; caption-side: top; caret-color: rgb(0, 0, 0); clear: none; clip: auto; clip-path: none; clip-rule: nonzero; color-interpolation: srgb; color-interpolation-filters: linearrgb; color-rendering: auto; color-scheme: normal; columns: auto; column-fill: balance; gap: normal; column-rule: 0px rgb(0, 0, 0); column-span: none; contain: none; contain-intrinsic-block-size: none; contain-intrinsic-size: none; contain-intrinsic-inline-size: none; container: none; content: normal; content-visibility: visible; counter-increment: none; counter-reset: none; counter-set: none; cursor: text; cx: 0px; cy: 0px; d: none; direction: ltr; display: inline; dominant-baseline: auto; empty-cells: show; field-sizing: fixed; fill: rgb(0, 0, 0); fill-opacity: 1; fill-rule: nonzero; filter: none; flex: 0 1 auto; flex-flow: row; float: none; flood-color: rgb(0, 0, 0); flood-opacity: 1; font-family: Calibri, Calibri_EmbeddedFont, Calibri_MSFontService, sans-serif; font-feature-settings: normal; font-kerning: none; font-optical-sizing: auto; font-palette: normal; font-size-adjust: none; font-stretch: 100%; font-synthesis: weight style small-caps; font-variant-ligatures: none; font-variant-numeric: normal; font-variant-east-asian: normal; font-variant-alternates: normal; font-variant-position: normal; font-variation-settings: normal; font-weight: 700; forced-color-adjust: auto; grid-area: auto; grid: none; height: auto; hyphenate-character: auto; hyphenate-limit-chars: auto; hyphens: manual; image-orientation: from-image; image-rendering: auto; initial-letter: normal; inline-size: auto; inset-area: none; inset-block: auto; inset-inline: auto; isolation: auto; lighting-color: rgb(255, 255, 255); line-height: 19px; list-style: outside none disc; margin: 0px; marker: none; mask: none; mask-type: luminance; math-depth: 0; math-shift: normal; math-style: normal; max-height: none; max-width: none; min-height: 0px; min-width: 0px; mix-blend-mode: normal; object-fit: fill; object-position: 50% 50%; object-view-box: none; offset: normal; opacity: 1; order: 0; outline: rgb(0, 0, 0) none 0px; outline-offset: 0px; overflow: visible; overflow-anchor: auto; overflow-clip-margin: 0px; overflow-wrap: break-word; overlay: none; overscroll-behavior-block: auto; overscroll-behavior-inline: auto; overscroll-behavior: auto; padding: 0.7875px 0px 0px; page: auto; paint-order: normal; perspective: none; perspective-origin: 0px 0px; pointer-events: all; position: static; position-anchor: auto; position-try: none; position-visibility: always; quotes: auto; r: 0px; resize: none; rotate: none; ruby-align: space-around; ruby-position: over; rx: auto; ry: auto; scale: none; scroll-behavior: auto; scroll-margin-block: 0px; scroll-margin: 0px; scroll-margin-inline: 0px; scroll-padding-block: auto; scroll-padding: auto; scroll-padding-inline: auto; scroll-snap-align: none; scroll-snap-stop: normal; scroll-snap-type: none; scroll-timeline: none; scrollbar-color: auto; scrollbar-gutter: auto; scrollbar-width: auto; shape-image-threshold: 0; shape-margin: 0px; shape-outside: none; shape-rendering: auto; speak: normal; stop-color: rgb(0, 0, 0); stop-opacity: 1; stroke: none; stroke-dasharray: none; stroke-dashoffset: 0px; stroke-linecap: butt; stroke-linejoin: miter; stroke-miterlimit: 4; stroke-opacity: 1; stroke-width: 1px; tab-size: 8; table-layout: auto; text-align: left; text-align-last: auto; text-anchor: start; text-combine-upright: none; text-decoration-style: solid; text-decoration-color: rgb(0, 0, 0); text-decoration-skip-ink: none; text-emphasis: none rgb(0, 0, 0); text-emphasis-position: over; text-orientation: mixed; text-overflow: clip; text-rendering: auto; text-shadow: none; text-size-adjust: auto; text-spacing-trim: normal; text-underline-offset: auto; text-underline-position: auto; white-space: pre-wrap; timeline-scope: none; touch-action: pan-x pan-y; transform: none; transform-box: view-box; transform-origin: 0px 0px; transform-style: flat; transition: all; translate: none; unicode-bidi: normal; user-select: text; vector-effect: none; vertical-align: -0.7875px; view-timeline: none; view-transition-class: none; view-transition-name: none; visibility: visible; border-block-end: 0px none rgb(0, 0, 0); border-block-start: 0px none rgb(0, 0, 0); border-inline-end: 0px none rgb(0, 0, 0); -webkit-border-image: none; border-inline-start: 0px none rgb(0, 0, 0); -webkit-box-align: stretch; -webkit-box-decoration-break: slice; -webkit-box-direction: normal; -webkit-box-flex: 0; -webkit-box-ordinal-group: 1; -webkit-box-orient: horizontal; -webkit-box-pack: start; -webkit-font-smoothing: auto; -webkit-line-break: after-white-space; -webkit-locale: &amp;quot;ES-CO&amp;quot;; block-size: auto; margin-block: 0px; margin-inline: 0px; -webkit-mask-box-image-source: none; -webkit-mask-box-image-slice: 0 fill; -webkit-mask-box-image-width: auto; -webkit-mask-box-image-outset: 0; -webkit-mask-box-image-repeat: stretch; max-block-size: none; max-inline-size: none; min-block-size: 0px; min-inline-size: 0px; padding-block: 0.7875px 0px; padding-inline: 0px; -webkit-print-color-adjust: economy; -webkit-rtl-ordering: logical; -webkit-ruby-position: before; -webkit-tap-highlight-color: rgba(0, 0, 0, 0); -webkit-text-combine: none; -webkit-text-fill-color: rgb(0, 0, 0); -webkit-text-orientation: vertical-right; -webkit-text-security: none; -webkit-text-stroke-color: rgb(0, 0, 0); -webkit-user-drag: none; -webkit-user-modify: read-write; -webkit-writing-mode: horizontal-tb; width: auto; will-change: auto; word-break: normal; writing-mode: horizontal-tb; x: 0px; y: 0px; z-index: auto; zoom: 1; font-size: 12px;&quot; lang=&quot;ES-CO&quot; class=&quot;TextRun  BCX8 SCXP43755073&quot; data-contrast=&quot;none&quot; data-usefontface=&quot;false&quot;&gt;&lt;span style=&quot;vertical-align: 0.7875px; line-height: 0px; position: relative;&quot; class=&quot;NormalTextRun  BCX8 SCXP43755073&quot;&gt;&lt;span style=&quot;forced-color-adjust: auto; font-variant-numeric: normal; font-variant-east-asian: normal; font-variant-alternates: normal; font-variant-position: normal; background: none 0% 0% / auto repeat scroll padding-box border-box rgba(0, 0, 0, 0); text-decoration-style: solid; text-decoration-color: rgb(0, 0, 0); accent-color: auto; place-content: normal; place-items: normal; place-self: auto; alignment-baseline: auto; anchor-name: none; animation: 0s ease 0s 1 normal none running none; animation-composition: replace; app-region: none; appearance: none; aspect-ratio: auto; backdrop-filter: none; backface-visibility: visible; background-blend-mode: normal; baseline-shift: 0px; baseline-source: auto; border-image: none 100% / 1 / 0 stretch; border-color: rgb(0, 0, 0); border-collapse: separate; border-end-end-radius: 0px; border-end-start-radius: 0px; border-width: 0px; border-style: none; border-spacing: 0px; border-start-end-radius: 0px; border-start-start-radius: 0px; border-radius: 0px; inset: auto; box-shadow: none; box-sizing: content-box; break-after: auto; break-before: auto; break-inside: auto; buffered-rendering: auto; caption-side: top; clear: none; clip: auto; clip-path: none; clip-rule: nonzero; color-interpolation: srgb; color-interpolation-filters: linearrgb; color-rendering: auto; color-scheme: normal; columns: auto; column-fill: balance; gap: normal; column-rule: 0px rgb(0, 0, 0); column-span: none; contain: none; contain-intrinsic-block-size: none; contain-intrinsic-size: none; contain-intrinsic-inline-size: none; container: none; content: normal; content-visibility: visible; counter-increment: none; counter-reset: none; counter-set: none; cursor: text; cx: 0px; cy: 0px; d: none; direction: ltr; display: inline; dominant-baseline: auto; empty-cells: show; field-sizing: fixed; fill: rgb(0, 0, 0); fill-opacity: 1; fill-rule: nonzero; filter: none; flex: 0 1 auto; flex-flow: row; float: none; flood-color: rgb(0, 0, 0); flood-opacity: 1; font-feature-settings: normal; font-kerning: none; font-optical-sizing: auto; font-palette: normal; font-size-adjust: none; font-stretch: 100%; font-synthesis: weight style small-caps; font-variation-settings: normal; grid-area: auto; grid: none; height: auto; hyphenate-character: auto; hyphenate-limit-chars: auto; hyphens: manual; image-orientation: from-image; image-rendering: auto; initial-letter: normal; inline-size: auto; inset-area: none; inset-block: auto; inset-inline: auto; isolation: auto; lighting-color: rgb(255, 255, 255); line-height: 19px; list-style: outside none disc; margin: 0px; marker: none; mask: none; mask-type: luminance; math-depth: 0; math-shift: normal; math-style: normal; max-height: none; max-width: none; min-height: 0px; min-width: 0px; mix-blend-mode: normal; object-fit: fill; object-position: 50% 50%; object-view-box: none; offset: normal; opacity: 1; order: 0; outline: rgb(0, 0, 0) none 0px; outline-offset: 0px; overflow: visible; overflow-anchor: auto; overflow-clip-margin: 0px; overflow-wrap: break-word; overlay: none; overscroll-behavior-block: auto; overscroll-behavior-inline: auto; overscroll-behavior: auto; padding: 0.7875px 0px 0px; page: auto; paint-order: normal; perspective: none; perspective-origin: 0px 0px; pointer-events: all; position: static; position-anchor: auto; position-try: none; position-visibility: always; quotes: auto; r: 0px; resize: none; rotate: none; ruby-align: space-around; ruby-position: over; rx: auto; ry: auto; scale: none; scroll-behavior: auto; scroll-margin-block: 0px; scroll-margin: 0px; scroll-margin-inline: 0px; scroll-padding-block: auto; scroll-padding: auto; scroll-padding-inline: auto; scroll-snap-align: none; scroll-snap-stop: normal; scroll-snap-type: none; scroll-timeline: none; scrollbar-color: auto; scrollbar-gutter: auto; scrollbar-width: auto; shape-image-threshold: 0; shape-margin: 0px; shape-outside: none; shape-rendering: auto; speak: normal; stop-color: rgb(0, 0, 0); stop-opacity: 1; stroke: none; stroke-dasharray: none; stroke-dashoffset: 0px; stroke-linecap: butt; stroke-linejoin: miter; stroke-miterlimit: 4; stroke-opacity: 1; stroke-width: 1px; tab-size: 8; table-layout: auto; text-align-last: auto; text-anchor: start; text-combine-upright: none; text-decoration-skip-ink: none; text-emphasis: none rgb(0, 0, 0); text-emphasis-position: over; text-orientation: mixed; text-overflow: clip; text-rendering: auto; text-shadow: none; text-size-adjust: auto; text-spacing-trim: normal; text-underline-offset: auto; text-underline-position: auto; timeline-scope: none; touch-action: pan-x pan-y; transform: none; transform-box: view-box; transform-origin: 0px 0px; transform-style: flat; transition: all; translate: none; unicode-bidi: normal; user-select: text; vector-effect: none; vertical-align: -0.7875px; view-timeline: none; view-transition-class: none; view-transition-name: none; visibility: visible; border-block-end: 0px none rgb(0, 0, 0); border-block-start: 0px none rgb(0, 0, 0); border-inline-end: 0px none rgb(0, 0, 0); -webkit-border-image: none; border-inline-start: 0px none rgb(0, 0, 0); -webkit-box-align: stretch; -webkit-box-decoration-break: slice; -webkit-box-direction: normal; -webkit-box-flex: 0; -webkit-box-ordinal-group: 1; -webkit-box-orient: horizontal; -webkit-box-pack: start; -webkit-font-smoothing: auto; -webkit-line-break: after-white-space; -webkit-locale: &amp;quot;ES-CO&amp;quot;; block-size: auto; margin-block: 0px; margin-inline: 0px; -webkit-mask-box-image-source: none; -webkit-mask-box-image-slice: 0 fill; -webkit-mask-box-image-width: auto; -webkit-mask-box-image-outset: 0; -webkit-mask-box-image-repeat: stretch; max-block-size: none; max-inline-size: none; min-block-size: 0px; min-inline-size: 0px; padding-block: 0.7875px 0px; padding-inline: 0px; -webkit-print-color-adjust: economy; -webkit-rtl-ordering: logical; -webkit-ruby-position: before; -webkit-tap-highlight-color: rgba(0, 0, 0, 0); -webkit-text-combine: none; -webkit-text-orientation: vertical-right; -webkit-text-security: none; -webkit-user-drag: none; -webkit-user-modify: read-write; -webkit-writing-mode: horizontal-tb; width: auto; will-change: auto; word-break: normal; writing-mode: horizontal-tb; x: 0px; y: 0px; z-index: auto; zoom: 1;&quot; lang=&quot;ES-CO&quot; class=&quot;TextRun  BCX8 SCXP43755073&quot; data-contrast=&quot;none&quot; data-usefontface=&quot;false&quot;&gt;&lt;span style=&quot;vertical-align: 0.7875px; line-height: 0px; position: relative;&quot; class=&quot;NormalTextRun  BCX8 SCXP43755073&quot;&gt;Web autorizado&lt;/span&gt;&lt;/span&gt;&lt;div style=&quot;font-family: Helvetica; font-variant-ligatures: normal; font-weight: 400; text-align: center; white-space: nowrap;&quot;&gt;&lt;span style=&quot;forced-color-adjust: auto; accent-color: auto; place-content: normal; place-items: normal; place-self: auto; alignment-baseline: auto; anchor-name: none; animation: 0s ease 0s 1 normal none running none; animation-composition: replace; app-region: none; appearance: none; aspect-ratio: auto; backdrop-filter: none; backface-visibility: visible; background: none 0% 0% / auto repeat scroll padding-box border-box rgba(0, 0, 0, 0); background-blend-mode: normal; baseline-shift: 0px; baseline-source: auto; border-image: none 100% / 1 / 0 stretch; border-color: rgb(0, 0, 0); border-collapse: separate; border-end-end-radius: 0px; border-end-start-radius: 0px; border-width: 0px; border-style: none; border-spacing: 0px; border-start-end-radius: 0px; border-start-start-radius: 0px; border-radius: 0px; inset: auto; box-shadow: none; box-sizing: content-box; break-after: auto; break-before: auto; break-inside: auto; buffered-rendering: auto; caption-side: top; clear: none; clip: auto; clip-path: none; clip-rule: nonzero; color-interpolation: srgb; color-interpolation-filters: linearrgb; color-rendering: auto; color-scheme: normal; columns: auto; column-fill: balance; gap: normal; column-rule: 0px rgb(0, 0, 0); column-span: none; contain: none; contain-intrinsic-block-size: none; contain-intrinsic-size: none; contain-intrinsic-inline-size: none; container: none; content: normal; content-visibility: visible; counter-increment: none; counter-reset: none; counter-set: none; cursor: text; cx: 0px; cy: 0px; d: none; direction: ltr; display: inline; dominant-baseline: auto; empty-cells: show; field-sizing: fixed; fill: rgb(0, 0, 0); fill-opacity: 1; fill-rule: nonzero; filter: none; flex: 0 1 auto; flex-flow: row; float: none; flood-color: rgb(0, 0, 0); flood-opacity: 1; font-family: Calibri, Calibri_EmbeddedFont, Calibri_MSFontService, sans-serif; font-feature-settings: normal; font-kerning: none; font-optical-sizing: auto; font-palette: normal; font-size-adjust: none; font-stretch: 100%; font-synthesis: weight style small-caps; font-variant-ligatures: none; font-variant-numeric: normal; font-variant-east-asian: normal; font-variant-alternates: normal; font-variant-position: normal; font-variation-settings: normal; font-weight: 700; grid-area: auto; grid: none; height: auto; hyphenate-character: auto; hyphenate-limit-chars: auto; hyphens: manual; image-orientation: from-image; image-rendering: auto; initial-letter: normal; inline-size: auto; inset-area: none; inset-block: auto; inset-inline: auto; isolation: auto; lighting-color: rgb(255, 255, 255); line-height: 19px; list-style: outside none disc; margin: 0px; marker: none; mask: none; mask-type: luminance; math-depth: 0; math-shift: normal; math-style: normal; max-height: none; max-width: none; min-height: 0px; min-width: 0px; mix-blend-mode: normal; object-fit: fill; object-position: 50% 50%; object-view-box: none; offset: normal; opacity: 1; order: 0; outline: rgb(0, 0, 0) none 0px; outline-offset: 0px; overflow: visible; overflow-anchor: auto; overflow-clip-margin: 0px; overflow-wrap: break-word; overlay: none; overscroll-behavior-block: auto; overscroll-behavior-inline: auto; overscroll-behavior: auto; padding: 0.7875px 0px 0px; page: auto; paint-order: normal; perspective: none; perspective-origin: 0px 0px; pointer-events: all; position: static; position-anchor: auto; position-try: none; position-visibility: always; quotes: auto; r: 0px; resize: none; rotate: none; ruby-align: space-around; ruby-position: over; rx: auto; ry: auto; scale: none; scroll-behavior: auto; scroll-margin-block: 0px; scroll-margin: 0px; scroll-margin-inline: 0px; scroll-padding-block: auto; scroll-padding: auto; scroll-padding-inline: auto; scroll-snap-align: none; scroll-snap-stop: normal; scroll-snap-type: none; scroll-timeline: none; scrollbar-color: auto; scrollbar-gutter: auto; scrollbar-width: auto; shape-image-threshold: 0; shape-margin: 0px; shape-outside: none; shape-rendering: auto; speak: normal; stop-color: rgb(0, 0, 0); stop-opacity: 1; stroke: none; stroke-dasharray: none; stroke-dashoffset: 0px; stroke-linecap: butt; stroke-linejoin: miter; stroke-miterlimit: 4; stroke-opacity: 1; stroke-width: 1px; tab-size: 8; table-layout: auto; text-align: left; text-align-last: auto; text-anchor: start; text-combine-upright: none; text-decoration-style: solid; text-decoration-color: rgb(0, 0, 0); text-decoration-skip-ink: none; text-emphasis: none rgb(0, 0, 0); text-emphasis-position: over; text-orientation: mixed; text-overflow: clip; text-rendering: auto; text-shadow: none; text-size-adjust: auto; text-spacing-trim: normal; text-underline-offset: auto; text-underline-position: auto; white-space: pre-wrap; timeline-scope: none; touch-action: pan-x pan-y; transform: none; transform-box: view-box; transform-origin: 0px 0px; transform-style: flat; transition: all; translate: none; unicode-bidi: normal; user-select: text; vector-effect: none; vertical-align: -0.7875px; view-timeline: none; view-transition-class: none; view-transition-name: none; visibility: visible; border-block-end: 0px none rgb(0, 0, 0); border-block-start: 0px none rgb(0, 0, 0); border-inline-end: 0px none rgb(0, 0, 0); -webkit-border-image: none; border-inline-start: 0px none rgb(0, 0, 0); -webkit-box-align: stretch; -webkit-box-decoration-break: slice; -webkit-box-direction: normal; -webkit-box-flex: 0; -webkit-box-ordinal-group: 1; -webkit-box-orient: horizontal; -webkit-box-pack: start; -webkit-font-smoothing: auto; -webkit-line-break: after-white-space; -webkit-locale: &amp;quot;ES-CO&amp;quot;; block-size: auto; margin-block: 0px; margin-inline: 0px; -webkit-mask-box-image-source: none; -webkit-mask-box-image-slice: 0 fill; -webkit-mask-box-image-width: auto; -webkit-mask-box-image-outset: 0; -webkit-mask-box-image-repeat: stretch; max-block-size: none; max-inline-size: none; min-block-size: 0px; min-inline-size: 0px; padding-block: 0.7875px 0px; padding-inline: 0px; -webkit-print-color-adjust: economy; -webkit-rtl-ordering: logical; -webkit-ruby-position: before; -webkit-tap-highlight-color: rgba(0, 0, 0, 0); -webkit-text-combine: none; -webkit-text-orientation: vertical-right; -webkit-text-security: none; -webkit-user-drag: none; -webkit-user-modify: read-write; -webkit-writing-mode: horizontal-tb; width: auto; will-change: auto; word-break: normal; writing-mode: horizontal-tb; x: 0px; y: 0px; z-index: auto; zoom: 1;&quot; lang=&quot;ES-CO&quot; class=&quot;TextRun  BCX8 SCXP43755073&quot; data-contrast=&quot;none&quot; data-usefontface=&quot;false&quot;&gt;&lt;span style=&quot;vertical-align: 0.7875px; line-height: 0px; position: relative;&quot; class=&quot;NormalTextRun  BCX8 SCXP43755073&quot;&gt;&lt;span style=&quot;forced-color-adjust: auto; accent-color: auto; place-content: normal; place-items: normal; place-self: auto; alignment-baseline: auto; anchor-name: none; animation: 0s ease 0s 1 normal none running none; animation-composition: replace; app-region: none; appearance: none; aspect-ratio: auto; backdrop-filter: none; backface-visibility: visible; background: none 0% 0% / auto repeat scroll padding-box border-box rgba(0, 0, 0, 0); background-blend-mode: normal; baseline-shift: 0px; baseline-source: auto; border-image: none 100% / 1 / 0 stretch; border-color: rgb(68, 114, 196); border-collapse: separate; border-end-end-radius: 0px; border-end-start-radius: 0px; border-width: 0px; border-style: none; border-spacing: 0px; border-start-end-radius: 0px; border-start-start-radius: 0px; border-radius: 0px; inset: auto; box-shadow: none; box-sizing: content-box; break-after: auto; break-before: auto; break-inside: auto; buffered-rendering: auto; caption-side: top; caret-color: rgb(68, 114, 196); clear: none; clip: auto; clip-path: none; clip-rule: nonzero; color: rgb(68, 114, 196); color-interpolation: srgb; color-interpolation-filters: linearrgb; color-rendering: auto; color-scheme: normal; columns: auto; column-fill: balance; gap: normal; column-rule: 0px rgb(68, 114, 196); column-span: none; contain: none; contain-intrinsic-block-size: none; contain-intrinsic-size: none; contain-intrinsic-inline-size: none; container: none; content: normal; content-visibility: visible; counter-increment: none; counter-reset: none; counter-set: none; cursor: text; cx: 0px; cy: 0px; d: none; direction: ltr; display: inline; dominant-baseline: auto; empty-cells: show; field-sizing: fixed; fill: rgb(0, 0, 0); fill-opacity: 1; fill-rule: nonzero; filter: none; flex: 0 1 auto; flex-flow: row; float: none; flood-color: rgb(0, 0, 0); flood-opacity: 1; font-feature-settings: normal; font-kerning: none; font-optical-sizing: auto; font-palette: normal; font-size-adjust: none; font-stretch: 100%; font-synthesis: weight style small-caps; font-variant-numeric: normal; font-variant-east-asian: normal; font-variant-alternates: normal; font-variant-position: normal; font-variation-settings: normal; grid-area: auto; grid: none; height: auto; hyphenate-character: auto; hyphenate-limit-chars: auto; hyphens: manual; image-orientation: from-image; image-rendering: auto; initial-letter: normal; inline-size: auto; inset-area: none; inset-block: auto; inset-inline: auto; isolation: auto; lighting-color: rgb(255, 255, 255); line-height: 19px; list-style: outside none disc; margin: 0px; marker: none; mask: none; mask-type: luminance; math-depth: 0; math-shift: normal; math-style: normal; max-height: none; max-width: none; min-height: 0px; min-width: 0px; mix-blend-mode: normal; object-fit: fill; object-position: 50% 50%; object-view-box: none; offset: normal; opacity: 1; order: 0; outline: rgb(68, 114, 196) none 0px; outline-offset: 0px; overflow: visible; overflow-anchor: auto; overflow-clip-margin: 0px; overflow-wrap: break-word; overlay: none; overscroll-behavior-block: auto; overscroll-behavior-inline: auto; overscroll-behavior: auto; padding: 0.7875px 0px 0px; page: auto; paint-order: normal; perspective: none; perspective-origin: 0px 0px; pointer-events: all; position: static; position-anchor: auto; position-try: none; position-visibility: always; quotes: auto; r: 0px; resize: none; rotate: none; ruby-align: space-around; ruby-position: over; rx: auto; ry: auto; scale: none; scroll-behavior: auto; scroll-margin-block: 0px; scroll-margin: 0px; scroll-margin-inline: 0px; scroll-padding-block: auto; scroll-padding: auto; scroll-padding-inline: auto; scroll-snap-align: none; scroll-snap-stop: normal; scroll-snap-type: none; scroll-timeline: none; scrollbar-color: auto; scrollbar-gutter: auto; scrollbar-width: auto; shape-image-threshold: 0; shape-margin: 0px; shape-outside: none; shape-rendering: auto; speak: normal; stop-color: rgb(0, 0, 0); stop-opacity: 1; stroke: none; stroke-dasharray: none; stroke-dashoffset: 0px; stroke-linecap: butt; stroke-linejoin: miter; stroke-miterlimit: 4; stroke-opacity: 1; stroke-width: 1px; tab-size: 8; table-layout: auto; text-align-last: auto; text-anchor: start; text-combine-upright: none; text-decoration-style: solid; text-decoration-color: rgb(68, 114, 196); text-decoration-skip-ink: none; text-emphasis: none rgb(68, 114, 196); text-emphasis-position: over; text-orientation: mixed; text-overflow: clip; text-rendering: auto; text-shadow: none; text-size-adjust: auto; text-spacing-trim: normal; text-underline-offset: auto; text-underline-position: auto; timeline-scope: none; touch-action: pan-x pan-y; transform: none; transform-box: view-box; transform-origin: 0px 0px; transform-style: flat; transition: all; translate: none; unicode-bidi: normal; user-select: text; vector-effect: none; vertical-align: -0.7875px; view-timeline: none; view-transition-class: none; view-transition-name: none; visibility: visible; border-block-end: 0px none rgb(68, 114, 196); border-block-start: 0px none rgb(68, 114, 196); border-inline-end: 0px none rgb(68, 114, 196); -webkit-border-image: none; border-inline-start: 0px none rgb(68, 114, 196); -webkit-box-align: stretch; -webkit-box-decoration-break: slice; -webkit-box-direction: normal; -webkit-box-flex: 0; -webkit-box-ordinal-group: 1; -webkit-box-orient: horizontal; -webkit-box-pack: start; -webkit-font-smoothing: auto; -webkit-line-break: after-white-space; -webkit-locale: &amp;quot;ES-CO&amp;quot;; block-size: auto; margin-block: 0px; margin-inline: 0px; -webkit-mask-box-image-source: none; -webkit-mask-box-image-slice: 0 fill; -webkit-mask-box-image-width: auto; -webkit-mask-box-image-outset: 0; -webkit-mask-box-image-repeat: stretch; max-block-size: none; max-inline-size: none; min-block-size: 0px; min-inline-size: 0px; padding-block: 0.7875px 0px; padding-inline: 0px; -webkit-print-color-adjust: economy; -webkit-rtl-ordering: logical; -webkit-ruby-position: before; -webkit-tap-highlight-color: rgba(0, 0, 0, 0); -webkit-text-combine: none; -webkit-text-fill-color: rgb(68, 114, 196); -webkit-text-orientation: vertical-right; -webkit-text-security: none; -webkit-text-stroke-color: rgb(68, 114, 196); -webkit-user-drag: none; -webkit-user-modify: read-write; -webkit-writing-mode: horizontal-tb; width: auto; will-change: auto; word-break: normal; writing-mode: horizontal-tb; x: 0px; y: 0px; z-index: auto; zoom: 1;&quot; lang=&quot;ES-CO&quot; class=&quot;TextRun  BCX8 SCXP43755073&quot; data-contrast=&quot;none&quot; data-usefontface=&quot;false&quot; data-scheme-color=&quot;@4472C4,4,&quot;&gt;&lt;span style=&quot;vertical-align: 0.7875px; line-height: 0px; position: relative;&quot; class=&quot;NormalTextRun  BCX8 SCXP43755073&quot;&gt;https://web.sigab.gov.co/&lt;/span&gt;&lt;/span&gt;&lt;/span&gt;&lt;/span&gt;&lt;/div&gt;&lt;/span&gt;&lt;/span&gt;&lt;/div&gt;" style="text;html=1;align=center;verticalAlign=middle;resizable=0;points=[];autosize=1;strokeColor=none;fillColor=none;" vertex="1" parent="ElAwQmVQCS1_ze1naP4R-90">
          <mxGeometry x="396.25" y="80" width="150" height="50" as="geometry" />
        </mxCell>
        <mxCell id="ElAwQmVQCS1_ze1naP4R-96" value="" style="sketch=0;pointerEvents=1;shadow=0;dashed=0;html=1;strokeColor=#d79b00;fillColor=#ffe6cc;labelPosition=center;verticalLabelPosition=bottom;verticalAlign=top;outlineConnect=0;align=center;shape=mxgraph.office.concepts.globe_internet;" vertex="1" parent="ElAwQmVQCS1_ze1naP4R-90">
          <mxGeometry x="451.25" y="42" width="39.5" height="38" as="geometry" />
        </mxCell>
        <mxCell id="ElAwQmVQCS1_ze1naP4R-97" style="edgeStyle=orthogonalEdgeStyle;rounded=0;orthogonalLoop=1;jettySize=auto;html=1;" edge="1" parent="1" source="ElAwQmVQCS1_ze1naP4R-99" target="ElAwQmVQCS1_ze1naP4R-101">
          <mxGeometry relative="1" as="geometry" />
        </mxCell>
        <mxCell id="ElAwQmVQCS1_ze1naP4R-98" value="" style="edgeStyle=orthogonalEdgeStyle;rounded=0;orthogonalLoop=1;jettySize=auto;html=1;" edge="1" parent="1" target="ElAwQmVQCS1_ze1naP4R-103">
          <mxGeometry relative="1" as="geometry">
            <mxPoint x="-830" y="-200" as="sourcePoint" />
          </mxGeometry>
        </mxCell>
        <mxCell id="ElAwQmVQCS1_ze1naP4R-99" value="&lt;div&gt;PDI&lt;/div&gt;" style="sketch=0;points=[[0,0,0],[0.25,0,0],[0.5,0,0],[0.75,0,0],[1,0,0],[0,1,0],[0.25,1,0],[0.5,1,0],[0.75,1,0],[1,1,0],[0,0.25,0],[0,0.5,0],[0,0.75,0],[1,0.25,0],[1,0.5,0],[1,0.75,0]];outlineConnect=0;fontColor=#232F3E;fillColor=#7AA116;strokeColor=#ffffff;dashed=0;verticalLabelPosition=bottom;verticalAlign=top;align=center;html=1;fontSize=12;fontStyle=0;aspect=fixed;shape=mxgraph.aws4.resourceIcon;resIcon=mxgraph.aws4.ec2;" vertex="1" parent="1">
          <mxGeometry x="-860" y="-282" width="60" height="60" as="geometry" />
        </mxCell>
        <mxCell id="ElAwQmVQCS1_ze1naP4R-100" value="&lt;div&gt;Framework&lt;/div&gt;" style="sketch=0;points=[[0,0,0],[0.25,0,0],[0.5,0,0],[0.75,0,0],[1,0,0],[0,1,0],[0.25,1,0],[0.5,1,0],[0.75,1,0],[1,1,0],[0,0.25,0],[0,0.5,0],[0,0.75,0],[1,0.25,0],[1,0.5,0],[1,0.75,0]];outlineConnect=0;fontColor=#232F3E;fillColor=#7AA116;strokeColor=#ffffff;dashed=0;verticalLabelPosition=bottom;verticalAlign=top;align=center;html=1;fontSize=12;fontStyle=0;aspect=fixed;shape=mxgraph.aws4.resourceIcon;resIcon=mxgraph.aws4.ec2;" vertex="1" parent="1">
          <mxGeometry x="-860" y="-577" width="60" height="60" as="geometry" />
        </mxCell>
        <mxCell id="ElAwQmVQCS1_ze1naP4R-101" value="&lt;div&gt;Task Runner&lt;/div&gt;" style="sketch=0;points=[[0,0,0],[0.25,0,0],[0.5,0,0],[0.75,0,0],[1,0,0],[0,1,0],[0.25,1,0],[0.5,1,0],[0.75,1,0],[1,1,0],[0,0.25,0],[0,0.5,0],[0,0.75,0],[1,0.25,0],[1,0.5,0],[1,0.75,0]];outlineConnect=0;fontColor=#232F3E;fillColor=#7AA116;strokeColor=#ffffff;dashed=0;verticalLabelPosition=bottom;verticalAlign=top;align=center;html=1;fontSize=12;fontStyle=0;aspect=fixed;shape=mxgraph.aws4.resourceIcon;resIcon=mxgraph.aws4.ec2;" vertex="1" parent="1">
          <mxGeometry x="-1000" y="-314" width="60" height="60" as="geometry" />
        </mxCell>
        <mxCell id="ElAwQmVQCS1_ze1naP4R-102" value="&lt;div&gt;MapServer&lt;/div&gt;" style="sketch=0;points=[[0,0,0],[0.25,0,0],[0.5,0,0],[0.75,0,0],[1,0,0],[0,1,0],[0.25,1,0],[0.5,1,0],[0.75,1,0],[1,1,0],[0,0.25,0],[0,0.5,0],[0,0.75,0],[1,0.25,0],[1,0.5,0],[1,0.75,0]];outlineConnect=0;fontColor=#232F3E;fillColor=#7AA116;strokeColor=#ffffff;dashed=0;verticalLabelPosition=bottom;verticalAlign=top;align=center;html=1;fontSize=12;fontStyle=0;aspect=fixed;shape=mxgraph.aws4.resourceIcon;resIcon=mxgraph.aws4.ec2;" vertex="1" parent="1">
          <mxGeometry x="-860" y="-392" width="60" height="60" as="geometry" />
        </mxCell>
        <mxCell id="ElAwQmVQCS1_ze1naP4R-103" value="WordPress" style="sketch=0;points=[[0,0,0],[0.25,0,0],[0.5,0,0],[0.75,0,0],[1,0,0],[0,1,0],[0.25,1,0],[0.5,1,0],[0.75,1,0],[1,1,0],[0,0.25,0],[0,0.5,0],[0,0.75,0],[1,0.25,0],[1,0.5,0],[1,0.75,0]];outlineConnect=0;fontColor=#232F3E;fillColor=#7AA116;strokeColor=#ffffff;dashed=0;verticalLabelPosition=bottom;verticalAlign=top;align=center;html=1;fontSize=12;fontStyle=0;aspect=fixed;shape=mxgraph.aws4.resourceIcon;resIcon=mxgraph.aws4.ec2;" vertex="1" parent="1">
          <mxGeometry x="-860" y="-172" width="60" height="60" as="geometry" />
        </mxCell>
        <mxCell id="ElAwQmVQCS1_ze1naP4R-104" style="edgeStyle=orthogonalEdgeStyle;rounded=0;orthogonalLoop=1;jettySize=auto;html=1;" edge="1" parent="1" source="ElAwQmVQCS1_ze1naP4R-105" target="ElAwQmVQCS1_ze1naP4R-106">
          <mxGeometry relative="1" as="geometry" />
        </mxCell>
        <mxCell id="ElAwQmVQCS1_ze1naP4R-105" value="&lt;div&gt;Task Manager&lt;/div&gt;" style="sketch=0;points=[[0,0,0],[0.25,0,0],[0.5,0,0],[0.75,0,0],[1,0,0],[0,1,0],[0.25,1,0],[0.5,1,0],[0.75,1,0],[1,1,0],[0,0.25,0],[0,0.5,0],[0,0.75,0],[1,0.25,0],[1,0.5,0],[1,0.75,0]];outlineConnect=0;fontColor=#232F3E;fillColor=#7AA116;strokeColor=#ffffff;dashed=0;verticalLabelPosition=bottom;verticalAlign=top;align=center;html=1;fontSize=12;fontStyle=0;aspect=fixed;shape=mxgraph.aws4.resourceIcon;resIcon=mxgraph.aws4.ec2;" vertex="1" parent="1">
          <mxGeometry x="-860" y="-483" width="60" height="60" as="geometry" />
        </mxCell>
        <mxCell id="ElAwQmVQCS1_ze1naP4R-106" value="&lt;div&gt;Box&lt;/div&gt;" style="sketch=0;points=[[0,0,0],[0.25,0,0],[0.5,0,0],[0.75,0,0],[1,0,0],[0,1,0],[0.25,1,0],[0.5,1,0],[0.75,1,0],[1,1,0],[0,0.25,0],[0,0.5,0],[0,0.75,0],[1,0.25,0],[1,0.5,0],[1,0.75,0]];outlineConnect=0;fontColor=#232F3E;fillColor=#7AA116;strokeColor=#ffffff;dashed=0;verticalLabelPosition=bottom;verticalAlign=top;align=center;html=1;fontSize=12;fontStyle=0;aspect=fixed;shape=mxgraph.aws4.resourceIcon;resIcon=mxgraph.aws4.ec2;" vertex="1" parent="1">
          <mxGeometry x="-1000" y="-432" width="60" height="60" as="geometry" />
        </mxCell>
        <mxCell id="ElAwQmVQCS1_ze1naP4R-107" value="&lt;font color=&quot;#7aa116&quot;&gt;Servicios Backend&lt;/font&gt;" style="points=[[0,0],[0.25,0],[0.5,0],[0.75,0],[1,0],[1,0.25],[1,0.5],[1,0.75],[1,1],[0.75,1],[0.5,1],[0.25,1],[0,1],[0,0.75],[0,0.5],[0,0.25]];outlineConnect=0;gradientColor=none;html=1;whiteSpace=wrap;fontSize=12;fontStyle=0;container=1;pointerEvents=0;collapsible=0;recursiveResize=0;shape=mxgraph.aws4.group;grIcon=mxgraph.aws4.group_ec2_instance_contents;strokeColor=#7AA116;fillColor=none;verticalAlign=top;align=left;spacingLeft=30;fontColor=#D86613;dashed=0;" vertex="1" parent="1">
          <mxGeometry x="-1030" y="-610" width="290" height="534.75" as="geometry" />
        </mxCell>
        <mxCell id="ElAwQmVQCS1_ze1naP4R-108" style="edgeStyle=orthogonalEdgeStyle;rounded=0;orthogonalLoop=1;jettySize=auto;html=1;entryX=1;entryY=0.5;entryDx=0;entryDy=0;entryPerimeter=0;" edge="1" parent="1" source="ElAwQmVQCS1_ze1naP4R-8" target="ElAwQmVQCS1_ze1naP4R-57">
          <mxGeometry relative="1" as="geometry">
            <Array as="points">
              <mxPoint x="160" y="-371" />
              <mxPoint x="160" y="-669" />
            </Array>
          </mxGeometry>
        </mxCell>
        <mxCell id="ElAwQmVQCS1_ze1naP4R-109" style="edgeStyle=orthogonalEdgeStyle;rounded=0;orthogonalLoop=1;jettySize=auto;html=1;entryX=1;entryY=0.5;entryDx=0;entryDy=0;entryPerimeter=0;" edge="1" parent="1" source="ElAwQmVQCS1_ze1naP4R-7" target="ElAwQmVQCS1_ze1naP4R-59">
          <mxGeometry relative="1" as="geometry">
            <Array as="points">
              <mxPoint x="160" y="-372" />
              <mxPoint x="160" y="-51" />
            </Array>
          </mxGeometry>
        </mxCell>
        <mxCell id="ElAwQmVQCS1_ze1naP4R-110" value="&lt;font color=&quot;#000000&quot;&gt;Reportes BI&lt;/font&gt;" style="points=[[0,0],[0.25,0],[0.5,0],[0.75,0],[1,0],[1,0.25],[1,0.5],[1,0.75],[1,1],[0.75,1],[0.5,1],[0.25,1],[0,1],[0,0.75],[0,0.5],[0,0.25]];outlineConnect=0;gradientColor=none;html=1;whiteSpace=wrap;fontSize=12;fontStyle=0;container=1;pointerEvents=0;collapsible=0;recursiveResize=0;shape=mxgraph.aws4.group;grIcon=mxgraph.aws4.group_ec2_instance_contents;strokeColor=#FFB570;fillColor=none;verticalAlign=top;align=left;spacingLeft=30;fontColor=#D86613;dashed=0;" vertex="1" parent="1">
          <mxGeometry x="1877" y="15" width="160" height="130.5" as="geometry" />
        </mxCell>
        <mxCell id="ElAwQmVQCS1_ze1naP4R-111" value="" style="sketch=0;pointerEvents=1;shadow=0;dashed=0;html=1;strokeColor=none;fillColor=#FFB570;labelPosition=center;verticalLabelPosition=bottom;verticalAlign=top;outlineConnect=0;align=center;shape=mxgraph.office.concepts.document;" vertex="1" parent="ElAwQmVQCS1_ze1naP4R-110">
          <mxGeometry x="10" y="45" width="30" height="30" as="geometry" />
        </mxCell>
        <mxCell id="ElAwQmVQCS1_ze1naP4R-112" value="" style="sketch=0;pointerEvents=1;shadow=0;dashed=0;html=1;strokeColor=none;fillColor=#FFB570;labelPosition=center;verticalLabelPosition=bottom;verticalAlign=top;outlineConnect=0;align=center;shape=mxgraph.office.concepts.document;" vertex="1" parent="ElAwQmVQCS1_ze1naP4R-110">
          <mxGeometry x="10" y="87.5" width="30" height="30" as="geometry" />
        </mxCell>
        <mxCell id="ElAwQmVQCS1_ze1naP4R-113" value="" style="sketch=0;pointerEvents=1;shadow=0;dashed=0;html=1;strokeColor=none;fillColor=#FFE599;labelPosition=center;verticalLabelPosition=bottom;verticalAlign=top;outlineConnect=0;align=center;shape=mxgraph.office.concepts.document;" vertex="1" parent="ElAwQmVQCS1_ze1naP4R-110">
          <mxGeometry x="64" y="87.5" width="30" height="30" as="geometry" />
        </mxCell>
        <mxCell id="ElAwQmVQCS1_ze1naP4R-114" value="" style="sketch=0;pointerEvents=1;shadow=0;dashed=0;html=1;strokeColor=none;fillColor=#FFE599;labelPosition=center;verticalLabelPosition=bottom;verticalAlign=top;outlineConnect=0;align=center;shape=mxgraph.office.concepts.document;" vertex="1" parent="ElAwQmVQCS1_ze1naP4R-110">
          <mxGeometry x="64" y="45" width="30" height="30" as="geometry" />
        </mxCell>
        <mxCell id="ElAwQmVQCS1_ze1naP4R-115" value="" style="sketch=0;pointerEvents=1;shadow=0;dashed=0;html=1;strokeColor=none;fillColor=#FFE599;labelPosition=center;verticalLabelPosition=bottom;verticalAlign=top;outlineConnect=0;align=center;shape=mxgraph.office.concepts.document;" vertex="1" parent="ElAwQmVQCS1_ze1naP4R-110">
          <mxGeometry x="118" y="87.5" width="30" height="30" as="geometry" />
        </mxCell>
        <mxCell id="ElAwQmVQCS1_ze1naP4R-116" value="" style="sketch=0;pointerEvents=1;shadow=0;dashed=0;html=1;strokeColor=none;fillColor=#FFE599;labelPosition=center;verticalLabelPosition=bottom;verticalAlign=top;outlineConnect=0;align=center;shape=mxgraph.office.concepts.document;" vertex="1" parent="ElAwQmVQCS1_ze1naP4R-110">
          <mxGeometry x="118" y="45" width="30" height="30" as="geometry" />
        </mxCell>
        <mxCell id="ElAwQmVQCS1_ze1naP4R-117" value="" style="sketch=0;pointerEvents=1;shadow=0;dashed=0;html=1;strokeColor=none;fillColor=#FFB570;labelPosition=center;verticalLabelPosition=bottom;verticalAlign=top;outlineConnect=0;align=center;shape=mxgraph.office.concepts.document;" vertex="1" parent="ElAwQmVQCS1_ze1naP4R-110">
          <mxGeometry x="118" y="45" width="30" height="30" as="geometry" />
        </mxCell>
        <mxCell id="ElAwQmVQCS1_ze1naP4R-118" value="" style="sketch=0;pointerEvents=1;shadow=0;dashed=0;html=1;strokeColor=none;fillColor=#FFB570;labelPosition=center;verticalLabelPosition=bottom;verticalAlign=top;outlineConnect=0;align=center;shape=mxgraph.office.concepts.document;" vertex="1" parent="ElAwQmVQCS1_ze1naP4R-110">
          <mxGeometry x="118" y="87.5" width="30" height="30" as="geometry" />
        </mxCell>
        <mxCell id="ElAwQmVQCS1_ze1naP4R-119" value="" style="sketch=0;pointerEvents=1;shadow=0;dashed=0;html=1;strokeColor=none;fillColor=#FFB570;labelPosition=center;verticalLabelPosition=bottom;verticalAlign=top;outlineConnect=0;align=center;shape=mxgraph.office.concepts.document;" vertex="1" parent="ElAwQmVQCS1_ze1naP4R-110">
          <mxGeometry x="64" y="45" width="30" height="30" as="geometry" />
        </mxCell>
        <mxCell id="ElAwQmVQCS1_ze1naP4R-120" value="" style="sketch=0;pointerEvents=1;shadow=0;dashed=0;html=1;strokeColor=none;fillColor=#FFB570;labelPosition=center;verticalLabelPosition=bottom;verticalAlign=top;outlineConnect=0;align=center;shape=mxgraph.office.concepts.document;" vertex="1" parent="ElAwQmVQCS1_ze1naP4R-110">
          <mxGeometry x="64" y="87.5" width="30" height="30" as="geometry" />
        </mxCell>
        <mxCell id="ElAwQmVQCS1_ze1naP4R-121" style="edgeStyle=orthogonalEdgeStyle;rounded=0;orthogonalLoop=1;jettySize=auto;html=1;entryX=0.5;entryY=0;entryDx=0;entryDy=0;" edge="1" parent="1" source="ElAwQmVQCS1_ze1naP4R-95" target="ElAwQmVQCS1_ze1naP4R-110">
          <mxGeometry relative="1" as="geometry">
            <Array as="points">
              <mxPoint x="2121" y="-25" />
              <mxPoint x="1957" y="-25" />
            </Array>
          </mxGeometry>
        </mxCell>
        <mxCell id="ElAwQmVQCS1_ze1naP4R-122" value="" style="sketch=0;pointerEvents=1;shadow=0;dashed=0;html=1;strokeColor=#d79b00;fillColor=#ffe6cc;labelPosition=center;verticalLabelPosition=bottom;verticalAlign=top;outlineConnect=0;align=center;shape=mxgraph.office.devices.cell_phone_windows_phone_standalone;" vertex="1" parent="1">
          <mxGeometry x="1665.5" y="-357" width="24" height="42" as="geometry" />
        </mxCell>
        <mxCell id="ElAwQmVQCS1_ze1naP4R-123" style="edgeStyle=orthogonalEdgeStyle;rounded=0;orthogonalLoop=1;jettySize=auto;html=1;entryX=0.936;entryY=0.504;entryDx=0;entryDy=0;entryPerimeter=0;" edge="1" parent="1" source="ElAwQmVQCS1_ze1naP4R-90" target="ElAwQmVQCS1_ze1naP4R-38">
          <mxGeometry relative="1" as="geometry" />
        </mxCell>
        <mxCell id="ElAwQmVQCS1_ze1naP4R-124" value="App Autorizado Android" style="text;html=1;align=center;verticalAlign=middle;resizable=0;points=[];autosize=1;strokeColor=none;fillColor=none;" vertex="1" parent="1">
          <mxGeometry x="1610" y="-310.12" width="150" height="30" as="geometry" />
        </mxCell>
        <mxCell id="ElAwQmVQCS1_ze1naP4R-125" style="edgeStyle=orthogonalEdgeStyle;rounded=0;orthogonalLoop=1;jettySize=auto;html=1;entryX=1;entryY=0.371;entryDx=0;entryDy=0;entryPerimeter=0;" edge="1" parent="1" source="ElAwQmVQCS1_ze1naP4R-122" target="ElAwQmVQCS1_ze1naP4R-40">
          <mxGeometry relative="1" as="geometry" />
        </mxCell>
        <mxCell id="ElAwQmVQCS1_ze1naP4R-126" style="edgeStyle=orthogonalEdgeStyle;rounded=0;orthogonalLoop=1;jettySize=auto;html=1;entryX=1.013;entryY=0.387;entryDx=0;entryDy=0;entryPerimeter=0;" edge="1" parent="1" source="ElAwQmVQCS1_ze1naP4R-54" target="ElAwQmVQCS1_ze1naP4R-40">
          <mxGeometry relative="1" as="geometry" />
        </mxCell>
        <mxCell id="ElAwQmVQCS1_ze1naP4R-127" value="&lt;span data-teams=&quot;true&quot;&gt;&lt;span class=&quot;ui-provider a b c d e f g h i j k l m n o p q r s t u v w x y z ab ac ae af ag ah ai aj ak&quot; dir=&quot;ltr&quot;&gt;&lt;span style=&quot;font-family: -apple-system, BlinkMacSystemFont, &amp;quot;Segoe UI&amp;quot;, system-ui, &amp;quot;Apple Color Emoji&amp;quot;, &amp;quot;Segoe UI Emoji&amp;quot;, &amp;quot;Segoe UI Web&amp;quot;, sans-serif; font-size: 14px; white-space: pre-wrap;&quot;&gt;&lt;p&gt;&lt;a href=&quot;https://reportingserver.sigab.gov.co/SigabReports&quot; rel=&quot;noreferrer noopener&quot; title=&quot;https://reportingserver.sigab.gov.co/sigabreports&quot; target=&quot;_blank&quot;&gt;&lt;font color=&quot;#000000&quot;&gt;https://reportingserver.sigab.gov.co/SigabReports&lt;/font&gt;&lt;/a&gt;&lt;/p&gt;&amp;nbsp;&lt;/span&gt;&lt;/span&gt;&lt;/span&gt;" style="text;html=1;align=center;verticalAlign=middle;resizable=0;points=[];autosize=1;strokeColor=none;fillColor=none;" vertex="1" parent="1">
          <mxGeometry x="1810" y="145.5" width="330" height="80" as="geometry" />
        </mxCell>
        <mxCell id="ElAwQmVQCS1_ze1naP4R-128" value="" style="sketch=0;pointerEvents=1;shadow=0;dashed=0;html=1;strokeColor=#d79b00;fillColor=#ffe6cc;labelPosition=center;verticalLabelPosition=bottom;verticalAlign=top;outlineConnect=0;align=center;shape=mxgraph.office.devices.cell_phone_windows_phone_standalone;" vertex="1" parent="1">
          <mxGeometry x="1665.5" y="-432" width="24" height="42" as="geometry" />
        </mxCell>
        <mxCell id="ElAwQmVQCS1_ze1naP4R-129" value="App Autorizado IOS" style="text;html=1;align=center;verticalAlign=middle;resizable=0;points=[];autosize=1;strokeColor=none;fillColor=none;" vertex="1" parent="1">
          <mxGeometry x="1620" y="-385.12" width="130" height="30" as="geometry" />
        </mxCell>
        <mxCell id="ElAwQmVQCS1_ze1naP4R-130" value="Instancias EC2 - ProducciÃ³n" style="points=[[0,0],[0.25,0],[0.5,0],[0.75,0],[1,0],[1,0.25],[1,0.5],[1,0.75],[1,1],[0.75,1],[0.5,1],[0.25,1],[0,1],[0,0.75],[0,0.5],[0,0.25]];outlineConnect=0;gradientColor=none;html=1;whiteSpace=wrap;fontSize=12;fontStyle=0;container=1;pointerEvents=0;collapsible=0;recursiveResize=0;shape=mxgraph.aws4.group;grIcon=mxgraph.aws4.group_ec2_instance_contents;strokeColor=#D86613;fillColor=none;verticalAlign=top;align=left;spacingLeft=30;fontColor=#D86613;dashed=0;" vertex="1" parent="1">
          <mxGeometry x="740" y="-266" width="591" height="430" as="geometry" />
        </mxCell>
        <mxCell id="ElAwQmVQCS1_ze1naP4R-131" value="&lt;div&gt;Instancia Win BD SQL&lt;br&gt;&lt;/div&gt;" style="sketch=0;points=[[0,0,0],[0.25,0,0],[0.5,0,0],[0.75,0,0],[1,0,0],[0,1,0],[0.25,1,0],[0.5,1,0],[0.75,1,0],[1,1,0],[0,0.25,0],[0,0.5,0],[0,0.75,0],[1,0.25,0],[1,0.5,0],[1,0.75,0]];outlineConnect=0;fontColor=#232F3E;fillColor=#ED7100;strokeColor=#ffffff;dashed=0;verticalLabelPosition=bottom;verticalAlign=top;align=center;html=1;fontSize=12;fontStyle=0;aspect=fixed;shape=mxgraph.aws4.resourceIcon;resIcon=mxgraph.aws4.ec2;" vertex="1" parent="ElAwQmVQCS1_ze1naP4R-130">
          <mxGeometry x="40" y="300" width="60" height="60" as="geometry" />
        </mxCell>
        <mxCell id="ElAwQmVQCS1_ze1naP4R-132" value="&lt;div&gt;Instancia Win&lt;/div&gt;&lt;div&gt;ETL Analytic&lt;br&gt;&lt;/div&gt;" style="sketch=0;points=[[0,0,0],[0.25,0,0],[0.5,0,0],[0.75,0,0],[1,0,0],[0,1,0],[0.25,1,0],[0.5,1,0],[0.75,1,0],[1,1,0],[0,0.25,0],[0,0.5,0],[0,0.75,0],[1,0.25,0],[1,0.5,0],[1,0.75,0]];outlineConnect=0;fontColor=#232F3E;fillColor=#ED7100;strokeColor=#ffffff;dashed=0;verticalLabelPosition=bottom;verticalAlign=top;align=center;html=1;fontSize=12;fontStyle=0;aspect=fixed;shape=mxgraph.aws4.resourceIcon;resIcon=mxgraph.aws4.ec2;" vertex="1" parent="ElAwQmVQCS1_ze1naP4R-130">
          <mxGeometry x="480" y="50" width="60" height="60" as="geometry" />
        </mxCell>
        <mxCell id="ElAwQmVQCS1_ze1naP4R-133" value="&lt;div&gt;2 Instancias Win&lt;/div&gt;&lt;div&gt;Front&lt;/div&gt;&lt;div&gt;&lt;br&gt;&lt;/div&gt;" style="sketch=0;points=[[0,0,0],[0.25,0,0],[0.5,0,0],[0.75,0,0],[1,0,0],[0,1,0],[0.25,1,0],[0.5,1,0],[0.75,1,0],[1,1,0],[0,0.25,0],[0,0.5,0],[0,0.75,0],[1,0.25,0],[1,0.5,0],[1,0.75,0]];outlineConnect=0;fontColor=#232F3E;fillColor=#ED7100;strokeColor=#ffffff;dashed=0;verticalLabelPosition=bottom;verticalAlign=top;align=center;html=1;fontSize=12;fontStyle=0;aspect=fixed;shape=mxgraph.aws4.resourceIcon;resIcon=mxgraph.aws4.ec2;" vertex="1" parent="ElAwQmVQCS1_ze1naP4R-130">
          <mxGeometry x="40" y="50" width="60" height="60" as="geometry" />
        </mxCell>
        <mxCell id="ElAwQmVQCS1_ze1naP4R-134" value="&lt;div&gt;Instancia Linux&lt;/div&gt;&lt;div&gt;VPN ClientToSite&lt;br&gt;&lt;/div&gt;" style="sketch=0;points=[[0,0,0],[0.25,0,0],[0.5,0,0],[0.75,0,0],[1,0,0],[0,1,0],[0.25,1,0],[0.5,1,0],[0.75,1,0],[1,1,0],[0,0.25,0],[0,0.5,0],[0,0.75,0],[1,0.25,0],[1,0.5,0],[1,0.75,0]];outlineConnect=0;fontColor=#232F3E;fillColor=#ED7100;strokeColor=#ffffff;dashed=0;verticalLabelPosition=bottom;verticalAlign=top;align=center;html=1;fontSize=12;fontStyle=0;aspect=fixed;shape=mxgraph.aws4.resourceIcon;resIcon=mxgraph.aws4.ec2;" vertex="1" parent="ElAwQmVQCS1_ze1naP4R-130">
          <mxGeometry x="40" y="170" width="60" height="60" as="geometry" />
        </mxCell>
        <mxCell id="ElAwQmVQCS1_ze1naP4R-135" value="&lt;div&gt;Instancia Linux&lt;/div&gt;&lt;div&gt;VPN ClientToSiteMFA&lt;br&gt;&lt;/div&gt;" style="sketch=0;points=[[0,0,0],[0.25,0,0],[0.5,0,0],[0.75,0,0],[1,0,0],[0,1,0],[0.25,1,0],[0.5,1,0],[0.75,1,0],[1,1,0],[0,0.25,0],[0,0.5,0],[0,0.75,0],[1,0.25,0],[1,0.5,0],[1,0.75,0]];outlineConnect=0;fontColor=#232F3E;fillColor=#ED7100;strokeColor=#ffffff;dashed=0;verticalLabelPosition=bottom;verticalAlign=top;align=center;html=1;fontSize=12;fontStyle=0;aspect=fixed;shape=mxgraph.aws4.resourceIcon;resIcon=mxgraph.aws4.ec2;" vertex="1" parent="ElAwQmVQCS1_ze1naP4R-130">
          <mxGeometry x="331" y="170" width="60" height="60" as="geometry" />
        </mxCell>
        <mxCell id="ElAwQmVQCS1_ze1naP4R-136" value="&lt;div&gt;Instancia Linux&lt;/div&gt;&lt;div&gt;VPN ClientToSiteMFAExternos&lt;br&gt;&lt;/div&gt;" style="sketch=0;points=[[0,0,0],[0.25,0,0],[0.5,0,0],[0.75,0,0],[1,0,0],[0,1,0],[0.25,1,0],[0.5,1,0],[0.75,1,0],[1,1,0],[0,0.25,0],[0,0.5,0],[0,0.75,0],[1,0.25,0],[1,0.5,0],[1,0.75,0]];outlineConnect=0;fontColor=#232F3E;fillColor=#ED7100;strokeColor=#ffffff;dashed=0;verticalLabelPosition=bottom;verticalAlign=top;align=center;html=1;fontSize=12;fontStyle=0;aspect=fixed;shape=mxgraph.aws4.resourceIcon;resIcon=mxgraph.aws4.ec2;" vertex="1" parent="ElAwQmVQCS1_ze1naP4R-130">
          <mxGeometry x="471" y="170" width="60" height="60" as="geometry" />
        </mxCell>
        <mxCell id="ElAwQmVQCS1_ze1naP4R-137" value="&lt;div&gt;Instancia Linux&lt;br&gt;&lt;/div&gt;&lt;div&gt;Monitoreo Grafana&lt;br&gt;&lt;/div&gt;" style="sketch=0;points=[[0,0,0],[0.25,0,0],[0.5,0,0],[0.75,0,0],[1,0,0],[0,1,0],[0.25,1,0],[0.5,1,0],[0.75,1,0],[1,1,0],[0,0.25,0],[0,0.5,0],[0,0.75,0],[1,0.25,0],[1,0.5,0],[1,0.75,0]];outlineConnect=0;fontColor=#232F3E;fillColor=#ED7100;strokeColor=#ffffff;dashed=0;verticalLabelPosition=bottom;verticalAlign=top;align=center;html=1;fontSize=12;fontStyle=0;aspect=fixed;shape=mxgraph.aws4.resourceIcon;resIcon=mxgraph.aws4.ec2;" vertex="1" parent="ElAwQmVQCS1_ze1naP4R-130">
          <mxGeometry x="181" y="50" width="60" height="60" as="geometry" />
        </mxCell>
        <mxCell id="ElAwQmVQCS1_ze1naP4R-138" value="&lt;div&gt;Instancia Win&lt;/div&gt;&lt;div&gt;WEB WMS&lt;br&gt;&lt;/div&gt;" style="sketch=0;points=[[0,0,0],[0.25,0,0],[0.5,0,0],[0.75,0,0],[1,0,0],[0,1,0],[0.25,1,0],[0.5,1,0],[0.75,1,0],[1,1,0],[0,0.25,0],[0,0.5,0],[0,0.75,0],[1,0.25,0],[1,0.5,0],[1,0.75,0]];outlineConnect=0;fontColor=#232F3E;fillColor=#ED7100;strokeColor=#ffffff;dashed=0;verticalLabelPosition=bottom;verticalAlign=top;align=center;html=1;fontSize=12;fontStyle=0;aspect=fixed;shape=mxgraph.aws4.resourceIcon;resIcon=mxgraph.aws4.ec2;" vertex="1" parent="ElAwQmVQCS1_ze1naP4R-130">
          <mxGeometry x="330" y="50" width="60" height="60" as="geometry" />
        </mxCell>
        <mxCell id="ElAwQmVQCS1_ze1naP4R-139" value="&lt;div&gt;Instancia Win&lt;br&gt;&lt;/div&gt;&lt;div&gt;SondaRemotaMonitor&lt;br&gt;&lt;/div&gt;" style="sketch=0;points=[[0,0,0],[0.25,0,0],[0.5,0,0],[0.75,0,0],[1,0,0],[0,1,0],[0.25,1,0],[0.5,1,0],[0.75,1,0],[1,1,0],[0,0.25,0],[0,0.5,0],[0,0.75,0],[1,0.25,0],[1,0.5,0],[1,0.75,0]];outlineConnect=0;fontColor=#232F3E;fillColor=#ED7100;strokeColor=#ffffff;dashed=0;verticalLabelPosition=bottom;verticalAlign=top;align=center;html=1;fontSize=12;fontStyle=0;aspect=fixed;shape=mxgraph.aws4.resourceIcon;resIcon=mxgraph.aws4.ec2;" vertex="1" parent="ElAwQmVQCS1_ze1naP4R-130">
          <mxGeometry x="181" y="170" width="60" height="60" as="geometry" />
        </mxCell>
      </root>
    </mxGraphModel>
  </diagram>
</mxfile>
